<svg xmlns="http://www.w3.org/2000/svg" viewBox="0 0 36.75 44.27"><defs><style>.cls-1{fill:#999;}</style></defs><g id="Layer_2" data-name="Layer 2"><g id="Layer_2-2" data-name="Layer 2"><path class="cls-1" d="M18.09,20.75a10,10,0,0,0,7.34-3,10,10,0,0,0,3-7.33,10.08,10.08,0,0,0-3-7.34,10,10,0,0,0-7.34-3,10,10,0,0,0-7.34,3,10.08,10.08,0,0,0-3,7.34,10,10,0,0,0,3,7.33A10,10,0,0,0,18.09,20.75Zm0-1.55a8.43,8.43,0,0,1-6.24-2.59,8.42,8.42,0,0,1-2.58-6.23,8.42,8.42,0,0,1,2.58-6.24,8.42,8.42,0,0,1,6.24-2.58,8.42,8.42,0,0,1,6.24,2.58,8.42,8.42,0,0,1,2.58,6.24,8.42,8.42,0,0,1-2.58,6.23A8.43,8.43,0,0,1,18.09,19.2Z"/><path class="cls-1" d="M36.66,34.38a26.73,26.73,0,0,0-.36-2.81,23.14,23.14,0,0,0-.68-2.81,14.47,14.47,0,0,0-1.14-2.59A10,10,0,0,0,32.79,24a7.53,7.53,0,0,0-2.39-1.5,8.31,8.31,0,0,0-3.08-.55c-.28,0-.62.11-1.47.66L24,23.78a11.27,11.27,0,0,1-2.53,1.11,9.83,9.83,0,0,1-6.19,0,11,11,0,0,1-2.52-1.11l-1.86-1.2c-.85-.55-1.19-.66-1.47-.66a8.31,8.31,0,0,0-3.08.55A7.53,7.53,0,0,0,4,24a9.69,9.69,0,0,0-1.68,2.2,13.44,13.44,0,0,0-1.14,2.59,21,21,0,0,0-.69,2.81,26.08,26.08,0,0,0-.36,2.81C0,35.23,0,36.12,0,37a7,7,0,0,0,2.07,5.3,7.53,7.53,0,0,0,5.38,2H29.3a7.51,7.51,0,0,0,5.39-2A7,7,0,0,0,36.75,37C36.75,36.12,36.72,35.23,36.66,34.38Zm-35,.11A26,26,0,0,1,2,31.84a20.34,20.34,0,0,1,.64-2.61,12.19,12.19,0,0,1,1-2.29A7.85,7.85,0,0,1,5,25.1a5.63,5.63,0,0,1,1.89-1.18,6.61,6.61,0,0,1,2.28-.44h.14l.13.07.57.34,1.87,1.21a12.37,12.37,0,0,0,2.88,1.28,11.31,11.31,0,0,0,7.15,0,12.41,12.41,0,0,0,2.88-1.28l1.87-1.21.57-.34.13-.07h.14a6.71,6.71,0,0,1,2.29.44,5.83,5.83,0,0,1,1.88,1.17,8.13,8.13,0,0,1,1.41,1.85,11.26,11.26,0,0,1,1,2.29,20.34,20.34,0,0,1,.64,2.61,23.48,23.48,0,0,1,.34,2.65c.06.8.09,1.66.09,2.53a5.42,5.42,0,0,1-1.59,4.17,5.9,5.9,0,0,1-4.31,1.53H7.45a5.93,5.93,0,0,1-4.31-1.53A5.41,5.41,0,0,1,1.56,37C1.56,36.16,1.58,35.3,1.64,34.49Z"/></g></g></svg>