<svg width="903" height="749" viewBox="0 0 903 749" fill="none" xmlns="http://www.w3.org/2000/svg">
<g clip-path="url(#clip0)">
<path d="M645.092 169.558H638.678C637.413 169.558 636.388 170.583 636.388 171.848V257.872C636.388 259.137 637.413 260.162 638.678 260.162H645.092C646.357 260.162 647.382 259.137 647.382 257.872V171.848C647.382 170.583 646.357 169.558 645.092 169.558Z" fill="#3F3D56"/>
<path d="M603.329 0H313.531C291.997 0 274.541 17.4564 274.541 38.99V708.465C274.541 729.999 291.997 747.455 313.531 747.455H603.329C624.863 747.455 642.319 729.999 642.319 708.465V38.99C642.319 17.4564 624.863 0 603.329 0Z" fill="#3F3D56"/>
<path d="M591.13 19.469H548.942V24.544C548.942 27.703 548.32 30.831 547.11 33.7494C545.901 36.6678 544.129 39.3192 541.894 41.5524C539.66 43.7855 537.007 45.5565 534.088 46.7643C531.169 47.972 528.041 48.5927 524.882 48.591H390.713C387.554 48.5927 384.426 47.972 381.507 46.7643C378.588 45.5565 375.935 43.7855 373.701 41.5524C371.467 39.3192 369.694 36.6678 368.485 33.7494C367.275 30.831 366.653 27.703 366.653 24.544V19.469H327.153C319.406 19.469 311.977 22.5464 306.499 28.0241C301.021 33.5019 297.944 40.9313 297.944 48.678V698.828C297.944 706.575 301.021 714.004 306.499 719.482C311.977 724.96 319.406 728.037 327.153 728.037H591.13C598.877 728.037 606.306 724.96 611.784 719.482C617.262 714.004 620.339 706.575 620.339 698.828V48.728C620.346 44.888 619.595 41.0844 618.13 37.5348C616.665 33.9853 614.515 30.7594 611.802 28.0418C609.089 25.3242 605.866 23.1682 602.319 21.6972C598.772 20.2262 594.97 19.469 591.13 19.469V19.469Z" fill="white"/>
<path d="M470.442 22.322H426.825C424.688 22.322 422.955 24.0547 422.955 26.192V28.875C422.955 31.0124 424.688 32.745 426.825 32.745H470.442C472.579 32.745 474.312 31.0124 474.312 28.875V26.192C474.312 24.0547 472.579 22.322 470.442 22.322Z" fill="#E6E8EC"/>
<path d="M487.999 33.453C491.268 33.453 493.918 30.803 493.918 27.534C493.918 24.265 491.268 21.615 487.999 21.615C484.73 21.615 482.08 24.265 482.08 27.534C482.08 30.803 484.73 33.453 487.999 33.453Z" fill="#E6E8EC"/>
<path d="M460.676 452.477C499.1 452.477 530.249 421.328 530.249 382.904C530.249 344.48 499.1 313.331 460.676 313.331C422.252 313.331 391.103 344.48 391.103 382.904C391.103 421.328 422.252 452.477 460.676 452.477Z" fill="white"/>
<path d="M552.184 373.189C552.183 391.58 546.729 409.558 536.511 424.849C526.293 440.141 511.77 452.059 494.779 459.096C477.787 466.133 459.091 467.974 441.053 464.386C423.016 460.797 406.447 451.94 393.443 438.936C380.439 425.931 371.583 409.362 367.996 391.324C364.409 373.286 366.251 354.59 373.289 337.599C380.328 320.608 392.247 306.086 407.539 295.868C422.831 285.651 440.809 280.198 459.2 280.199C471.411 280.199 483.503 282.605 494.784 287.278C506.066 291.952 516.316 298.801 524.951 307.436C533.585 316.071 540.434 326.322 545.107 337.604C549.78 348.886 552.184 360.978 552.184 373.189V373.189ZM448.451 422.409L517.428 353.432C517.986 352.875 518.429 352.214 518.731 351.486C519.034 350.758 519.189 349.977 519.189 349.188C519.189 348.4 519.034 347.619 518.731 346.891C518.429 346.163 517.986 345.502 517.428 344.945L508.941 336.52C508.385 335.962 507.725 335.519 506.998 335.217C506.271 334.915 505.491 334.76 504.703 334.76C503.916 334.76 503.136 334.915 502.409 335.217C501.682 335.519 501.022 335.962 500.466 336.52L444.208 392.779L417.94 366.449C416.812 365.328 415.287 364.698 413.696 364.698C412.106 364.698 410.581 365.328 409.453 366.449L400.966 374.986C399.845 376.114 399.215 377.639 399.215 379.229C399.215 380.82 399.845 382.345 400.966 383.473L439.966 422.459C440.523 423.017 441.184 423.46 441.912 423.762C442.64 424.065 443.421 424.22 444.209 424.22C444.998 424.22 445.779 424.065 446.507 423.762C447.235 423.46 447.896 423.017 448.453 422.459L448.451 422.409Z" fill="#03045E"/>
<path d="M715.288 745.598C740.138 745.598 760.283 742.191 760.283 737.989C760.283 733.787 740.138 730.38 715.288 730.38C690.438 730.38 670.293 733.787 670.293 737.989C670.293 742.191 690.438 745.598 715.288 745.598Z" fill="#03045E"/>
<path d="M733.897 725.546C735.948 723.869 737.442 721.61 738.183 719.067C738.742 716.505 737.646 713.467 735.183 712.476C732.43 711.424 729.483 713.338 727.26 715.262C725.037 717.186 722.471 719.391 719.55 718.977C721.054 717.618 722.18 715.892 722.818 713.969C723.456 712.045 723.584 709.988 723.191 708C723.06 707.176 722.708 706.402 722.173 705.762C720.651 704.128 717.873 704.822 716.052 706.12C710.233 710.204 708.611 718.12 708.577 725.22C707.984 722.658 708.487 719.983 708.465 717.387C708.443 714.791 707.738 711.787 705.511 710.416C704.137 709.679 702.593 709.316 701.035 709.364C698.417 709.264 695.507 709.532 693.717 711.445C691.479 713.817 692.083 717.801 694.008 720.397C695.933 722.993 698.876 724.66 701.584 726.462C703.748 727.754 705.594 729.518 706.984 731.621C707.151 731.915 707.285 732.227 707.384 732.55H723.733C727.419 730.684 730.837 728.33 733.894 725.55L733.897 725.546Z" fill="#03045E"/>
<path d="M213.505 748.956C229.905 748.956 243.199 746.708 243.199 743.934C243.199 741.16 229.905 738.912 213.505 738.912C197.105 738.912 183.811 741.16 183.811 743.934C183.811 746.708 197.105 748.956 213.505 748.956Z" fill="#EFEFEF"/>
<path d="M225.786 735.722C227.139 734.615 228.125 733.124 228.614 731.446C228.829 730.604 228.751 729.714 228.391 728.923C228.031 728.131 227.411 727.487 226.635 727.096C224.818 726.402 222.876 727.665 221.407 728.935C219.938 730.205 218.246 731.66 216.319 731.387C217.311 730.49 218.053 729.351 218.474 728.081C218.895 726.812 218.979 725.455 218.719 724.143C218.633 723.599 218.4 723.089 218.047 722.666C217.047 721.588 215.211 722.046 214.008 722.902C210.168 725.602 209.097 730.818 209.075 735.508C208.684 733.817 209.016 732.052 209.001 730.339C208.986 728.626 208.521 726.647 207.051 725.739C206.144 725.253 205.126 725.013 204.097 725.045C202.369 724.979 200.449 725.156 199.267 726.419C197.79 727.985 198.189 730.614 199.459 732.327C200.729 734.04 202.671 735.141 204.459 736.327C205.888 737.178 207.107 738.34 208.026 739.727C208.137 739.921 208.226 740.127 208.292 740.34H219.081C221.514 739.108 223.769 737.553 225.786 735.717V735.722Z" fill="#EFEFEF"/>
<path d="M45.573 748.956C61.9726 748.956 75.267 746.708 75.267 743.934C75.267 741.16 61.9726 738.912 45.573 738.912C29.1735 738.912 15.879 741.16 15.879 743.934C15.879 746.708 29.1735 748.956 45.573 748.956Z" fill="#EFEFEF"/>
<path d="M57.8541 735.722C59.2072 734.615 60.1932 733.124 60.6821 731.446C60.8974 730.604 60.8185 729.714 60.4586 728.923C60.0987 728.131 59.4793 727.487 58.7031 727.096C56.8861 726.402 54.944 727.665 53.475 728.935C52.006 730.205 50.3141 731.66 48.3871 731.387C49.379 730.49 50.1214 729.351 50.542 728.081C50.9626 726.812 51.047 725.455 50.787 724.143C50.7005 723.599 50.4683 723.089 50.115 722.666C49.115 721.588 47.279 722.046 46.076 722.902C42.236 725.602 41.1651 730.818 41.1431 735.508C40.7521 733.817 41.084 732.052 41.069 730.339C41.054 728.626 40.5891 726.647 39.1191 725.739C38.2123 725.253 37.1935 725.013 36.165 725.045C34.437 724.979 32.5171 725.156 31.3351 726.419C29.8581 727.985 30.257 730.614 31.527 732.327C32.797 734.04 34.739 735.141 36.527 736.327C37.9562 737.178 39.1754 738.34 40.094 739.727C40.2047 739.921 40.2939 740.127 40.36 740.34H51.149C53.5818 739.108 55.8371 737.553 57.8541 735.717V735.722Z" fill="#EFEFEF"/>
<path d="M902.86 746.088H0.29303V747.909H902.86V746.088Z" fill="#2F2E41"/>
<path d="M260.231 434H204.231V417C221.926 404.685 237.605 405.756 258.231 418L260.231 434Z" fill="#6C63FF"/>
<path d="M191.263 735.957L179.003 735.956L177.17 688.668L191.265 688.669L191.263 735.957Z" fill="#FFB8B8"/>
<path d="M194.389 747.841L154.859 747.839V747.339C154.859 745.319 155.257 743.318 156.03 741.451C156.803 739.584 157.936 737.888 159.365 736.459C160.794 735.031 162.49 733.897 164.357 733.124C166.224 732.351 168.225 731.953 170.245 731.953H170.246L194.39 731.954L194.389 747.841Z" fill="#2F2E41"/>
<path d="M260.316 735.957L272.576 735.956L274.409 688.668L260.314 688.669L260.316 735.957Z" fill="#FFB8B8"/>
<path d="M257.189 731.954L281.333 731.953H281.334C283.355 731.953 285.356 732.351 287.222 733.124C289.089 733.897 290.785 735.031 292.214 736.459C293.643 737.888 294.776 739.584 295.549 741.451C296.323 743.318 296.721 745.319 296.721 747.339V747.839L257.19 747.841L257.189 731.954Z" fill="#2F2E41"/>
<path d="M260.639 729.896C259.616 729.893 258.624 729.543 257.826 728.903C257.028 728.263 256.47 727.371 256.245 726.374L225.858 593.834C225.791 593.498 225.608 593.195 225.34 592.981C225.072 592.766 224.737 592.653 224.394 592.661H224.386C224.042 592.654 223.706 592.77 223.439 592.988C223.171 593.205 222.99 593.51 222.926 593.849L195.022 725.495C194.804 726.502 194.249 727.404 193.448 728.053C192.648 728.701 191.65 729.057 190.619 729.061H177.327C176.713 729.061 176.106 728.936 175.543 728.693C174.98 728.45 174.473 728.094 174.052 727.648C173.631 727.201 173.306 726.674 173.097 726.097C172.887 725.521 172.798 724.908 172.834 724.295L182.735 557.44L186.719 556.261L186.794 556.262L265.052 556.947L281.72 723.619C281.778 724.213 281.717 724.813 281.541 725.384C281.365 725.955 281.077 726.485 280.693 726.943C280.31 727.401 279.839 727.778 279.309 728.052C278.778 728.327 278.198 728.493 277.603 728.541L260.999 729.881C260.878 729.891 260.758 729.896 260.639 729.896Z" fill="#2F2E41"/>
<path d="M228.321 403.532C241.886 403.532 252.882 392.535 252.882 378.971C252.882 365.406 241.886 354.41 228.321 354.41C214.757 354.41 203.76 365.406 203.76 378.971C203.76 392.535 214.757 403.532 228.321 403.532Z" fill="#FFB8B8"/>
<path d="M213.275 575.734C208.966 575.787 204.674 575.183 200.547 573.943C196.877 572.836 193.472 570.99 190.542 568.517C187.612 566.045 185.218 563 183.509 559.568C182.968 558.535 182.848 557.333 183.174 556.213C185.883 546.968 198.973 498.913 190.621 460.71C189.442 455.403 189.344 449.913 190.333 444.568C191.322 439.222 193.377 434.13 196.376 429.596C199.306 425.098 203.111 421.235 207.565 418.239C212.02 415.243 217.032 413.175 222.303 412.158L222.303 412.157C223.689 411.886 225.082 411.665 226.443 411.497C232.269 410.779 238.183 411.359 243.759 413.194C249.336 415.028 254.438 418.073 258.7 422.11C263.09 426.226 266.515 431.261 268.73 436.856C270.946 442.45 271.897 448.465 271.516 454.47L265.097 557.474C265.053 558.246 264.809 558.994 264.388 559.643C263.968 560.292 263.386 560.821 262.699 561.177C255.307 565.051 233.1 575.734 213.275 575.734Z" fill="#3F3D56"/>
<path d="M256.068 360.892C253.516 354.48 248.843 349.137 242.828 345.755C236.812 342.373 229.819 341.156 223.015 342.308L230.759 348.566C221.137 348.89 211.009 348.201 204.14 354.945C206.327 354.884 209.193 359.562 211.38 359.502C207.291 359.583 203.584 362.456 201.777 366.125C200.105 369.895 199.713 374.109 200.663 378.122C201.471 382.131 207.632 391.524 209.29 395.262C209.005 385.492 228.239 362.188 237.632 364.62C232.86 366.39 228.719 369.534 225.731 373.655C232.121 370.43 239.348 369.248 246.432 370.268C248.05 370.639 249.718 370.732 251.367 370.544C252.378 370.344 253.32 369.889 254.104 369.221C254.889 368.553 255.488 367.695 255.847 366.729C256.205 365.764 256.31 364.722 256.151 363.704C255.992 362.686 255.575 361.726 254.939 360.916L256.068 360.892Z" fill="#2F2E41"/>
<path d="M211.583 569.549C210.963 569.548 210.349 569.418 209.781 569.168L163.181 548.828C162.191 548.404 161.387 547.636 160.918 546.667C160.449 545.697 160.346 544.591 160.627 543.551L191.477 427.012C192.051 424.844 193.051 422.811 194.42 421.034C195.788 419.257 197.498 417.771 199.448 416.662C201.398 415.554 203.549 414.846 205.776 414.579C208.003 414.312 210.261 414.492 212.418 415.109L224.753 418.629L216.069 565.31C216.025 566.034 215.807 566.736 215.433 567.357C215.059 567.979 214.542 568.501 213.924 568.88C213.22 569.315 212.41 569.547 211.583 569.549V569.549Z" fill="#6C63FF"/>
<path d="M297.831 543.55L295.78 535.82L292.811 524.58L291.38 519.19L288.411 507.98L266.981 427.01C266.409 424.841 265.41 422.807 264.042 421.029C262.673 419.251 260.964 417.764 259.013 416.656C257.063 415.547 254.911 414.84 252.683 414.574C250.455 414.309 248.197 414.491 246.041 415.11L233.711 418.63L239.82 521.8L240.451 532.57L240.851 539.36V539.37L241.49 550.08L242.391 565.31C242.464 566.454 242.968 567.527 243.801 568.314C244.634 569.1 245.735 569.542 246.88 569.55C247.5 569.546 248.112 569.417 248.681 569.17L295.28 548.83C296.271 548.406 297.075 547.638 297.543 546.667C298.012 545.697 298.114 544.59 297.831 543.55V543.55Z" fill="#6C63FF"/>
<path d="M291.38 519.19L240.451 532.57L239.82 521.8L288.411 507.98L291.38 519.19Z" fill="#CCCCCC"/>
<path d="M295.78 535.82L241.49 550.08L240.851 539.37V539.36L292.811 524.58L295.78 535.82Z" fill="#CCCCCC"/>
<path d="M218.011 524.12L217.38 534.69L167.431 519.81L170.36 508.75L218.011 524.12Z" fill="#CCCCCC"/>
<path d="M216.97 541.65L166 525.2L163.07 536.29L216.35 552.16L216.97 541.65Z" fill="#CCCCCC"/>
<path d="M166.889 552.704C168.409 552.307 169.823 551.582 171.032 550.58C172.241 549.578 173.216 548.323 173.887 546.903C174.559 545.483 174.911 543.934 174.919 542.363C174.927 540.793 174.59 539.24 173.933 537.813L197.895 462.588L180.903 459.029L158.934 532.782C156.611 534.045 154.833 536.117 153.935 538.604C153.037 541.091 153.083 543.821 154.063 546.276C155.044 548.732 156.891 550.743 159.255 551.927C161.619 553.112 164.335 553.388 166.889 552.704V552.704Z" fill="#FFB8B8"/>
<path d="M198.56 425.606C203.439 426.103 206.183 431.589 204.97 438.42L199.149 471.198C198.713 473.655 196.69 475.601 195.01 475.181L175.319 470.259C173.804 469.88 173.246 467.727 174.105 465.574L185.925 435.92C188.492 429.48 193.83 425.123 198.56 425.606Z" fill="#3F3D56"/>
<path d="M228.231 333C236.543 333.001 244.529 336.237 250.497 342.023C256.465 347.81 259.947 355.691 260.205 364H266.231C266.761 364 267.27 364.211 267.645 364.586C268.02 364.961 268.231 365.47 268.231 366V374C268.231 374.53 268.02 375.039 267.645 375.414C267.27 375.789 266.761 376 266.231 376H198.231C197.7 376 197.191 375.789 196.816 375.414C196.441 375.039 196.231 374.53 196.231 374V365C196.231 360.798 197.058 356.636 198.666 352.754C200.275 348.872 202.632 345.344 205.603 342.373C208.575 339.401 212.102 337.044 215.985 335.436C219.867 333.828 224.028 333 228.231 333Z" fill="#6C63FF"/>
<path d="M232.054 530.805H217.919C217.465 530.806 217.027 530.638 216.692 530.334C216.356 530.029 216.146 529.61 216.103 529.158L213.273 500.156H236.7L233.87 529.158C233.828 529.609 233.618 530.029 233.282 530.333C232.946 530.638 232.508 530.806 232.054 530.805V530.805Z" fill="#E6E6E6"/>
<path d="M236.662 503.805H213.311C212.827 503.804 212.363 503.612 212.021 503.27C211.679 502.928 211.487 502.464 211.487 501.981V497.602C211.487 497.118 211.679 496.655 212.021 496.313C212.363 495.971 212.827 495.778 213.311 495.778H236.662C237.146 495.778 237.61 495.971 237.952 496.313C238.294 496.655 238.486 497.118 238.487 497.602V501.981C238.486 502.464 238.294 502.928 237.952 503.27C237.61 503.612 237.146 503.804 236.662 503.805V503.805Z" fill="#CCCCCC"/>
<path d="M225.29 515.251C225.84 515.315 226.383 515.422 226.916 515.571L264.562 483.287L262.362 471.441L279.804 465.784L285.738 486.375C286.217 488.038 286.144 489.813 285.529 491.431C284.915 493.049 283.792 494.425 282.329 495.35L234.651 525.521C234.685 527.652 234.069 529.743 232.885 531.516C231.702 533.289 230.006 534.659 228.025 535.445C226.043 536.231 223.869 536.395 221.792 535.915C219.716 535.435 217.834 534.334 216.398 532.759C214.962 531.184 214.039 529.208 213.753 527.096C213.467 524.984 213.831 522.834 214.796 520.934C215.762 519.033 217.283 517.471 219.157 516.456C221.032 515.441 223.171 515.021 225.29 515.252V515.251Z" fill="#FFB8B8"/>
<path d="M264.66 428.313C269.872 426.854 275.079 430.821 276.824 437.579L285.198 470.009C285.825 472.44 284.606 475.024 282.702 475.298L260.395 478.506C258.679 478.753 257.167 476.993 257.104 474.675L256.238 442.762C256.05 435.831 259.607 429.728 264.66 428.313Z" fill="#3F3D56"/>
</g>
<defs>
<clipPath id="clip0">
<rect width="902.567" height="748.955" fill="white" transform="translate(0.29303)"/>
</clipPath>
</defs>
</svg>
