<svg width="842" height="970" viewBox="0 0 842 970" fill="none" xmlns="http://www.w3.org/2000/svg">
<path d="M426.5 392C406.894 392 391 376.106 391 356.5C391 336.894 406.894 321 426.5 321C446.106 321 462 336.894 462 356.5C462 376.106 446.106 392 426.5 392Z" fill="#3F3D56"/>
<path opacity="0.1" d="M426.5 387.03C409.639 387.03 395.97 373.361 395.97 356.5C395.97 339.639 409.639 325.97 426.5 325.97C443.361 325.97 457.03 339.639 457.03 356.5C457.03 373.361 443.361 387.03 426.5 387.03Z" fill="black"/>
<path d="M586.222 567.035C584.568 565.971 583.168 564.558 582.12 562.895C581.071 561.232 580.401 559.359 580.154 557.408C579.908 555.457 580.093 553.477 580.695 551.605C581.297 549.733 582.303 548.017 583.64 546.576L573.534 403.163L602.644 405.986L603.444 546.43C605.716 548.838 607.026 551.995 607.125 555.303C607.225 558.612 606.108 561.842 603.985 564.382C601.862 566.922 598.881 568.595 595.607 569.084C592.333 569.573 588.994 568.844 586.222 567.035L586.222 567.035Z" fill="#A0616A"/>
<path d="M580.124 451.351C579.442 450.861 578.879 450.224 578.477 449.487C578.074 448.75 577.842 447.933 577.797 447.094L575.664 408.441C575.453 404.611 576.667 400.839 579.073 397.852C581.478 394.865 584.904 392.874 588.691 392.263C592.477 391.652 596.356 392.465 599.578 394.545C602.801 396.624 605.139 399.823 606.143 403.525L615.513 438.083C615.902 439.525 615.703 441.063 614.96 442.358C614.218 443.654 612.991 444.602 611.55 444.994L584.896 452.221C584.087 452.442 583.237 452.479 582.412 452.328C581.586 452.178 580.804 451.844 580.124 451.351V451.351Z" fill="#3F3D56"/>
<path d="M530.51 743.348H515.162L507.861 684.149H530.512L530.51 743.348Z" fill="#A0616A"/>
<path d="M504.199 738.962H533.798V757.599H485.563C485.562 755.152 486.045 752.728 486.981 750.467C487.918 748.206 489.291 746.152 491.021 744.421C492.752 742.69 494.806 741.318 497.067 740.381C499.328 739.444 501.752 738.962 504.199 738.962V738.962Z" fill="#2F2E41"/>
<path d="M588.096 743.348H572.748L565.447 684.149H588.099L588.096 743.348Z" fill="#A0616A"/>
<path d="M561.786 738.962H591.385V757.599H543.149C543.149 755.152 543.631 752.728 544.568 750.467C545.504 748.206 546.877 746.152 548.607 744.421C550.338 742.69 552.393 741.318 554.654 740.381C556.915 739.444 559.338 738.962 561.786 738.962Z" fill="#2F2E41"/>
<path d="M529.785 713.525L512.889 712.719C511.45 712.651 510.091 712.034 509.093 710.995C508.095 709.955 507.533 708.573 507.523 707.132C503.069 638.38 496.9 564.659 506.344 536.18C506.339 535.368 506.508 534.565 506.842 533.825C507.176 533.085 507.665 532.426 508.277 531.893C508.889 531.36 509.608 530.965 510.387 530.736C511.165 530.506 511.984 530.448 512.787 530.564L580.381 540.377C581.716 540.564 582.94 541.226 583.826 542.243C584.712 543.259 585.202 544.561 585.205 545.91C593.835 579.631 594.225 640.78 593.898 704.316C593.904 705.059 593.762 705.796 593.482 706.485C593.201 707.173 592.787 707.799 592.263 708.327C591.74 708.854 591.117 709.273 590.431 709.559C589.744 709.845 589.008 709.992 588.265 709.992H570.05C568.706 709.997 567.405 709.52 566.384 708.647C565.362 707.773 564.688 706.562 564.485 705.234L553.247 633.792C553.083 632.747 552.546 631.796 551.735 631.116C550.925 630.436 549.895 630.072 548.838 630.091C547.78 630.111 546.764 630.512 545.98 631.222C545.195 631.932 544.693 632.902 544.568 633.952L535.647 708.568C535.478 709.934 534.817 711.193 533.787 712.107C532.757 713.021 531.429 713.528 530.052 713.532C529.963 713.532 529.874 713.53 529.785 713.525Z" fill="#2F2E41"/>
<path d="M541.679 545.917C526.782 537.641 515.143 535.466 509.53 534.906C508.785 534.834 508.061 534.611 507.404 534.251C506.747 533.891 506.17 533.401 505.708 532.811C505.235 532.218 504.889 531.534 504.688 530.802C504.488 530.07 504.438 529.305 504.542 528.553L520.738 408.309C521.671 401.274 524.388 394.595 528.631 388.908C532.874 383.22 538.502 378.712 544.979 375.814C551.249 372.932 558.152 371.702 565.032 372.241C571.911 372.78 578.538 375.071 584.283 378.895C584.838 379.264 585.382 379.641 585.917 380.026C592.532 384.872 597.564 391.569 600.379 399.271C603.194 406.974 603.666 415.337 601.736 423.307C591.804 463.937 588.393 530.546 587.809 543.487C587.764 544.59 587.392 545.654 586.742 546.547C586.092 547.439 585.192 548.119 584.156 548.5C578.046 550.721 571.597 551.869 565.096 551.894C556.906 551.944 548.842 549.885 541.679 545.917Z" fill="#3F3D56"/>
<path d="M555.227 359.487C572.208 359.487 585.974 345.721 585.974 328.74C585.974 311.758 572.208 297.992 555.227 297.992C538.245 297.992 524.479 311.758 524.479 328.74C524.479 345.721 538.245 359.487 555.227 359.487Z" fill="#A0616A"/>
<path d="M576.985 353.066C571.249 359.176 560.596 355.896 559.848 347.548C559.79 346.9 559.794 346.248 559.861 345.601C560.247 341.903 562.383 338.546 561.871 334.642C561.756 333.671 561.394 332.745 560.82 331.952C556.249 325.831 545.519 334.69 541.205 329.149C538.56 325.751 541.669 320.402 539.639 316.604C536.96 311.592 529.025 314.065 524.049 311.32C518.512 308.266 518.843 299.771 522.488 294.604C526.933 288.302 534.726 284.94 542.422 284.455C550.118 283.971 557.761 286.051 564.946 288.851C573.11 292.033 581.205 296.43 586.229 303.608C592.338 312.337 592.926 324.074 589.871 334.281C588.012 340.491 581.669 348.076 576.985 353.066Z" fill="#2F2E41"/>
<path d="M601.335 382.959C600.796 380.43 596.177 376.975 589.567 374.158C578.942 369.855 567.451 368.122 556.03 369.101C544.609 370.08 533.581 373.743 523.843 379.792C523.164 379.828 522.515 380.087 521.997 380.528C521.479 380.969 521.121 381.568 520.976 382.233L498.743 480.568L495.851 493.375L493.936 501.85L491.044 514.619L489.504 521.442C489.405 521.878 489.401 522.33 489.492 522.768C489.582 523.206 489.765 523.62 490.028 523.981C490.291 524.343 490.629 524.644 491.017 524.865C491.406 525.085 491.838 525.22 492.283 525.26L588.29 533.548C588.378 533.548 588.478 533.56 588.565 533.56C589.357 533.556 590.118 533.251 590.694 532.707C591.27 532.163 591.619 531.421 591.67 530.631L592.584 516.723L593.56 501.85L593.986 495.403L594.95 480.568L601.347 383.122V383.034L601.335 382.959Z" fill="#6C63FF"/>
<path d="M443.804 389.149C443.958 389.824 444.058 390.511 444.104 391.202L497.881 422.226L510.953 414.701L524.888 432.944L496.924 452.874L435.572 404.473C433.07 405.399 430.345 405.542 427.76 404.881C425.175 404.221 422.852 402.789 421.1 400.776C419.349 398.764 418.251 396.265 417.954 393.614C417.657 390.962 418.174 388.283 419.437 385.933C420.699 383.582 422.648 381.672 425.023 380.456C427.397 379.239 430.086 378.775 432.731 379.124C435.377 379.473 437.853 380.619 439.831 382.41C441.809 384.201 443.195 386.551 443.804 389.149H443.804Z" fill="#A0616A"/>
<path d="M499.802 419.588C499.712 418.753 499.811 417.909 500.092 417.117C500.372 416.326 500.826 415.607 501.421 415.014L528.791 387.638C531.503 384.925 535.123 383.313 538.953 383.112C542.783 382.911 546.552 384.135 549.533 386.548C552.514 388.961 554.496 392.393 555.097 396.18C555.698 399.968 554.875 403.845 552.788 407.062L533.296 437.097C532.481 438.349 531.203 439.227 529.743 439.538C528.282 439.849 526.757 439.568 525.503 438.756L502.338 423.723C501.633 423.267 501.039 422.659 500.6 421.944C500.161 421.228 499.889 420.423 499.802 419.588Z" fill="#3F3D56"/>
<path d="M594.949 480.568L593.985 495.403L495.85 493.375L498.742 480.568H594.949Z" fill="#CCCCCC"/>
<path d="M593.561 501.85L592.583 516.722L491.043 514.619L493.936 501.85H593.561Z" fill="#CCCCCC"/>
<path d="M555.828 269C545.422 269.001 535.425 273.052 527.953 280.296C520.482 287.54 516.123 297.407 515.8 307.808H508.257C507.593 307.808 506.956 308.072 506.486 308.542C506.017 309.011 505.753 309.648 505.753 310.312V320.327C505.753 320.991 506.017 321.628 506.486 322.098C506.956 322.567 507.593 322.831 508.257 322.831H593.385C594.049 322.831 594.686 322.567 595.155 322.098C595.625 321.628 595.888 320.991 595.888 320.327V309.06C595.888 303.799 594.852 298.59 592.839 293.73C590.826 288.869 587.875 284.453 584.155 280.733C580.435 277.013 576.019 274.063 571.159 272.049C566.298 270.036 561.089 269 555.828 269V269Z" fill="#6C63FF"/>
<path d="M354.5 438C374.106 438 390 422.106 390 402.5C390 382.894 374.106 367 354.5 367C334.894 367 319 382.894 319 402.5C319 422.106 334.894 438 354.5 438Z" fill="#3F3D56"/>
<path opacity="0.1" d="M354.5 433.03C371.361 433.03 385.03 419.361 385.03 402.5C385.03 385.639 371.361 371.97 354.5 371.97C337.639 371.97 323.97 385.639 323.97 402.5C323.97 419.361 337.639 433.03 354.5 433.03Z" fill="black"/>
<path d="M194.778 613.035C196.432 611.971 197.832 610.558 198.88 608.895C199.928 607.232 200.599 605.359 200.845 603.408C201.091 601.457 200.907 599.477 200.305 597.605C199.702 595.733 198.697 594.017 197.36 592.576L207.466 449.163L178.355 451.986L177.556 592.43C175.284 594.838 173.974 597.995 173.874 601.303C173.775 604.612 174.892 607.842 177.015 610.382C179.138 612.922 182.119 614.595 185.392 615.084C188.666 615.573 192.006 614.844 194.778 613.035L194.778 613.035Z" fill="#A0616A"/>
<path d="M200.876 497.351C201.558 496.861 202.121 496.224 202.524 495.487C202.926 494.75 203.158 493.933 203.203 493.094L205.336 454.441C205.547 450.611 204.333 446.839 201.928 443.852C199.522 440.865 196.096 438.874 192.31 438.263C188.523 437.652 184.645 438.465 181.422 440.545C178.199 442.624 175.861 445.823 174.857 449.525L165.487 484.083C165.098 485.525 165.297 487.063 166.04 488.358C166.783 489.654 168.009 490.602 169.45 490.994L196.104 498.221C196.914 498.442 197.763 498.479 198.589 498.328C199.415 498.178 200.196 497.844 200.876 497.351V497.351Z" fill="#3F3D56"/>
<path d="M250.49 789.348H265.838L273.139 730.149H250.488L250.49 789.348Z" fill="#A0616A"/>
<path d="M276.801 784.962H247.202V803.599H295.437C295.438 801.152 294.955 798.728 294.019 796.467C293.082 794.206 291.709 792.152 289.979 790.421C288.248 788.69 286.194 787.318 283.933 786.381C281.672 785.444 279.248 784.962 276.801 784.962V784.962Z" fill="#2F2E41"/>
<path d="M192.904 789.348H208.252L215.553 730.149H192.901L192.904 789.348Z" fill="#A0616A"/>
<path d="M219.214 784.962H189.615V803.599H237.851C237.851 801.152 237.369 798.728 236.432 796.467C235.496 794.206 234.123 792.152 232.393 790.421C230.662 788.69 228.607 787.318 226.346 786.381C224.085 785.444 221.662 784.962 219.214 784.962Z" fill="#2F2E41"/>
<path d="M251.215 759.525L268.111 758.719C269.55 758.651 270.909 758.034 271.907 756.995C272.905 755.955 273.467 754.573 273.477 753.132C277.931 684.38 284.1 610.659 274.656 582.18C274.661 581.368 274.492 580.565 274.158 579.825C273.824 579.085 273.335 578.426 272.723 577.893C272.111 577.36 271.392 576.965 270.613 576.736C269.835 576.506 269.016 576.448 268.213 576.564L200.619 586.377C199.284 586.564 198.06 587.226 197.174 588.243C196.288 589.259 195.798 590.561 195.795 591.91C187.165 625.631 186.775 686.78 187.102 750.316C187.096 751.059 187.238 751.796 187.518 752.485C187.799 753.173 188.213 753.799 188.737 754.327C189.26 754.854 189.883 755.273 190.569 755.559C191.256 755.845 191.992 755.992 192.735 755.992H210.95C212.294 755.997 213.595 755.52 214.616 754.647C215.638 753.773 216.312 752.562 216.515 751.234L227.753 679.792C227.917 678.747 228.454 677.796 229.265 677.116C230.075 676.436 231.105 676.072 232.162 676.091C233.22 676.111 234.236 676.512 235.02 677.222C235.805 677.932 236.307 678.902 236.432 679.952L245.353 754.568C245.522 755.934 246.183 757.193 247.213 758.107C248.243 759.021 249.571 759.528 250.948 759.532C251.037 759.532 251.126 759.53 251.215 759.525Z" fill="#2F2E41"/>
<path d="M239.321 591.917C254.218 583.641 265.857 581.466 271.47 580.906C272.215 580.834 272.939 580.611 273.596 580.251C274.253 579.891 274.83 579.401 275.292 578.811C275.765 578.218 276.111 577.534 276.312 576.802C276.512 576.07 276.562 575.305 276.458 574.553L260.262 454.309C259.329 447.274 256.612 440.595 252.369 434.908C248.126 429.22 242.498 424.712 236.021 421.814C229.751 418.932 222.848 417.702 215.968 418.241C209.089 418.78 202.462 421.071 196.717 424.895C196.162 425.264 195.618 425.641 195.083 426.026C188.468 430.872 183.436 437.569 180.621 445.271C177.806 452.974 177.334 461.337 179.264 469.307C189.196 509.937 192.607 576.546 193.191 589.487C193.236 590.59 193.608 591.654 194.258 592.547C194.908 593.439 195.808 594.119 196.844 594.5C202.954 596.721 209.403 597.869 215.904 597.894C224.094 597.944 232.158 595.885 239.321 591.917Z" fill="#3F3D56"/>
<path d="M225.773 405.487C208.792 405.487 195.026 391.721 195.026 374.74C195.026 357.758 208.792 343.992 225.773 343.992C242.755 343.992 256.521 357.758 256.521 374.74C256.521 391.721 242.755 405.487 225.773 405.487Z" fill="#A0616A"/>
<path d="M204.015 399.066C209.751 405.176 220.404 401.896 221.152 393.548C221.21 392.9 221.206 392.248 221.139 391.601C220.753 387.903 218.617 384.546 219.129 380.642C219.244 379.671 219.606 378.745 220.18 377.952C224.751 371.831 235.481 380.69 239.795 375.149C242.44 371.751 239.331 366.402 241.361 362.604C244.04 357.592 251.975 360.065 256.951 357.32C262.488 354.266 262.157 345.771 258.512 340.604C254.067 334.302 246.274 330.94 238.578 330.455C230.882 329.971 223.239 332.051 216.054 334.851C207.89 338.033 199.795 342.43 194.771 349.608C188.662 358.337 188.074 370.074 191.129 380.281C192.988 386.491 199.331 394.076 204.015 399.066Z" fill="#2F2E41"/>
<path d="M179.665 428.959C180.204 426.43 184.823 422.975 191.433 420.158C202.058 415.855 213.549 414.122 224.97 415.101C236.391 416.08 247.419 419.743 257.157 425.792C257.836 425.828 258.485 426.087 259.003 426.528C259.521 426.969 259.879 427.568 260.024 428.233L282.257 526.568L285.149 539.375L287.064 547.85L289.956 560.619L291.496 567.442C291.595 567.878 291.599 568.33 291.508 568.768C291.418 569.206 291.235 569.62 290.972 569.981C290.709 570.343 290.371 570.644 289.983 570.865C289.594 571.085 289.162 571.22 288.717 571.26L192.71 579.548C192.622 579.548 192.522 579.56 192.435 579.56C191.643 579.556 190.882 579.251 190.306 578.707C189.73 578.163 189.381 577.421 189.33 576.631L188.416 562.723L187.44 547.85L187.014 541.403L186.05 526.568L179.653 429.122V429.034L179.665 428.959Z" fill="#6C63FF"/>
<path d="M337.196 435.149C337.042 435.824 336.942 436.511 336.896 437.202L283.119 468.226L270.047 460.701L256.112 478.944L284.076 498.874L345.428 450.473C347.93 451.399 350.655 451.542 353.24 450.881C355.825 450.221 358.148 448.789 359.9 446.776C361.651 444.764 362.749 442.265 363.046 439.614C363.343 436.962 362.826 434.283 361.563 431.933C360.301 429.582 358.352 427.672 355.977 426.456C353.603 425.239 350.914 424.775 348.269 425.124C345.623 425.473 343.147 426.619 341.169 428.41C339.191 430.201 337.805 432.551 337.196 435.149H337.196Z" fill="#A0616A"/>
<path d="M281.198 465.588C281.288 464.753 281.189 463.909 280.908 463.117C280.628 462.326 280.174 461.607 279.579 461.014L252.209 433.638C249.497 430.925 245.877 429.313 242.047 429.112C238.217 428.911 234.448 430.135 231.467 432.548C228.486 434.961 226.504 438.393 225.903 442.18C225.302 445.968 226.125 449.845 228.212 453.062L247.704 483.097C248.519 484.349 249.797 485.227 251.257 485.538C252.718 485.849 254.243 485.568 255.497 484.756L278.662 469.723C279.367 469.267 279.961 468.659 280.4 467.944C280.839 467.228 281.111 466.423 281.198 465.588Z" fill="#3F3D56"/>
<path d="M186.051 526.568L187.015 541.403L285.15 539.375L282.258 526.568H186.051Z" fill="#CCCCCC"/>
<path d="M187.439 547.85L188.417 562.722L289.957 560.619L287.064 547.85H187.439Z" fill="#CCCCCC"/>
<path d="M225.172 315C235.578 315.001 245.575 319.052 253.047 326.296C260.518 333.54 264.877 343.407 265.2 353.808H272.743C273.407 353.808 274.044 354.072 274.514 354.542C274.983 355.011 275.247 355.648 275.247 356.312V366.327C275.247 366.991 274.983 367.628 274.514 368.098C274.044 368.567 273.407 368.831 272.743 368.831H187.615C186.951 368.831 186.314 368.567 185.845 368.098C185.375 367.628 185.112 366.991 185.112 366.327V355.06C185.112 349.799 186.148 344.59 188.161 339.73C190.174 334.869 193.125 330.453 196.845 326.733C200.565 323.013 204.981 320.063 209.841 318.049C214.702 316.036 219.911 315 225.172 315V315Z" fill="#6C63FF"/>
<path d="M189.208 604C208.814 604 224.708 588.106 224.708 568.5C224.708 548.894 208.814 533 189.208 533C169.601 533 153.708 548.894 153.708 568.5C153.708 588.106 169.601 604 189.208 604Z" fill="#3F3D56"/>
<path opacity="0.1" d="M189.207 599.03C206.069 599.03 219.737 585.361 219.737 568.5C219.737 551.639 206.069 537.97 189.207 537.97C172.346 537.97 158.677 551.639 158.677 568.5C158.677 585.361 172.346 599.03 189.207 599.03Z" fill="black"/>
<path d="M29.4856 779.035C31.1391 777.971 32.5394 776.558 33.5876 774.895C34.6359 773.232 35.3067 771.359 35.5529 769.408C35.799 767.457 35.6144 765.477 35.0122 763.605C34.41 761.733 33.4048 760.017 32.0673 758.576L42.1731 615.163L13.063 617.986L12.2635 758.43C9.99151 760.838 8.68158 763.995 8.58186 767.303C8.48215 770.612 9.59963 773.842 11.7225 776.382C13.8454 778.922 16.8261 780.595 20.1 781.084C23.3738 781.573 26.7133 780.844 29.4856 779.035L29.4856 779.035Z" fill="#A0616A"/>
<path d="M35.5837 663.351C36.2654 662.861 36.8283 662.224 37.2311 661.487C37.6338 660.75 37.866 659.933 37.9106 659.094L40.0436 620.441C40.2547 616.611 39.0405 612.839 36.6351 609.852C34.2297 606.865 30.8034 604.874 27.017 604.263C23.2306 603.652 19.3522 604.465 16.1295 606.545C12.9069 608.624 10.5683 611.823 9.56472 615.525L0.194937 650.083C-0.194286 651.525 0.0043514 653.063 0.747297 654.358C1.49024 655.654 2.71679 656.602 4.15788 656.994L30.8113 664.221C31.6211 664.442 32.4703 664.479 33.2962 664.328C34.1222 664.178 34.9039 663.844 35.5837 663.351V663.351Z" fill="#3F3D56"/>
<path d="M85.1978 955.348H100.546L107.847 896.149H85.1954L85.1978 955.348Z" fill="#A0616A"/>
<path d="M111.508 950.962H81.909V969.599H130.145C130.145 967.152 129.663 964.728 128.726 962.467C127.79 960.206 126.417 958.152 124.686 956.421C122.956 954.69 120.901 953.318 118.64 952.381C116.379 951.444 113.956 950.962 111.508 950.962V950.962Z" fill="#2F2E41"/>
<path d="M27.6111 955.348H42.9592L50.2603 896.149H27.6087L27.6111 955.348Z" fill="#A0616A"/>
<path d="M53.9219 950.962H24.3226V969.599H72.5586C72.5586 967.152 72.0766 964.728 71.14 962.467C70.2034 960.206 68.8306 958.152 67.1 956.421C65.3695 954.69 63.315 953.318 61.0539 952.381C58.7928 951.444 56.3693 950.962 53.9219 950.962Z" fill="#2F2E41"/>
<path d="M85.9227 925.525L102.818 924.719C104.258 924.651 105.616 924.034 106.614 922.995C107.612 921.955 108.174 920.573 108.184 919.132C112.638 850.38 118.807 776.659 109.363 748.18C109.369 747.368 109.199 746.565 108.865 745.825C108.532 745.085 108.042 744.426 107.431 743.893C106.819 743.36 106.099 742.965 105.321 742.736C104.542 742.506 103.723 742.448 102.92 742.564L35.3266 752.377C33.991 752.564 32.7678 753.226 31.8815 754.243C30.9953 755.259 30.5057 756.561 30.5024 757.91C21.8725 791.631 21.4825 852.78 21.8089 916.316C21.8034 917.059 21.9449 917.796 22.2255 918.485C22.5061 919.173 22.9202 919.799 23.4439 920.327C23.9675 920.854 24.5904 921.273 25.2767 921.559C25.9629 921.845 26.699 921.992 27.4424 921.992H45.6573C47.0011 921.997 48.3022 921.52 49.3236 920.647C50.345 919.773 51.0188 918.562 51.2223 917.234L62.4604 845.792C62.6246 844.747 63.1615 843.796 63.972 843.116C64.7825 842.436 65.8118 842.072 66.8698 842.091C67.9277 842.111 68.9428 842.512 69.7277 843.222C70.5125 843.932 71.014 844.902 71.1396 845.952L80.0607 920.568C80.2288 921.934 80.8898 923.193 81.9198 924.107C82.9498 925.021 84.278 925.528 85.6551 925.532C85.7438 925.532 85.833 925.53 85.9227 925.525Z" fill="#2F2E41"/>
<path d="M74.0286 757.917C88.9253 749.641 100.565 747.466 106.177 746.906C106.923 746.834 107.646 746.611 108.303 746.251C108.96 745.891 109.537 745.401 109.999 744.811C110.472 744.218 110.819 743.534 111.019 742.802C111.219 742.07 111.269 741.305 111.165 740.553L94.9689 620.309C94.0364 613.274 91.3194 606.595 87.0763 600.908C82.8333 595.22 77.2053 590.712 70.728 587.814C64.4581 584.932 57.555 583.702 50.6755 584.241C43.7959 584.78 37.1688 587.071 31.4246 590.895C30.8695 591.264 30.3249 591.641 29.7906 592.026C23.1756 596.872 18.1433 603.569 15.3281 611.271C12.5129 618.974 12.0408 627.337 13.9712 635.307C23.9032 675.937 27.3147 742.546 27.8978 755.487C27.9436 756.59 28.3149 757.654 28.965 758.547C29.6151 759.439 30.5149 760.119 31.5508 760.5C37.6615 762.721 44.11 763.869 50.6117 763.894C58.8008 763.944 66.865 761.885 74.0286 757.917Z" fill="#3F3D56"/>
<path d="M60.4812 571.487C43.4998 571.487 29.7337 557.721 29.7337 540.74C29.7337 523.758 43.4998 509.992 60.4812 509.992C77.4626 509.992 91.2288 523.758 91.2288 540.74C91.2288 557.721 77.4626 571.487 60.4812 571.487Z" fill="#A0616A"/>
<path d="M38.7226 565.066C44.4588 571.176 55.1114 567.896 55.8588 559.548C55.9174 558.9 55.9132 558.248 55.8462 557.601C55.4603 553.903 53.3241 550.546 53.8358 546.642C53.9516 545.671 54.3136 544.745 54.8875 543.952C59.4584 537.831 70.1883 546.69 74.5022 541.149C77.1475 537.751 74.038 532.402 76.0679 528.604C78.747 523.592 86.6824 526.065 91.6587 523.32C97.1954 520.266 96.8642 511.771 93.2196 506.604C88.7747 500.302 80.9815 496.94 73.2854 496.455C65.5893 495.971 57.9462 498.051 50.7612 500.851C42.5975 504.033 34.5022 508.43 29.4784 515.608C23.3689 524.337 22.781 536.074 25.8365 546.281C27.6951 552.491 34.0385 560.076 38.7226 565.066Z" fill="#2F2E41"/>
<path d="M14.373 594.959C14.9115 592.43 19.5309 588.975 26.1405 586.158C36.7652 581.855 48.2561 580.122 59.6773 581.101C71.0985 582.08 82.127 585.743 91.8644 591.792C92.5437 591.828 93.1922 592.087 93.7102 592.528C94.2281 592.969 94.5868 593.568 94.7311 594.233L116.965 692.568L119.857 705.375L121.772 713.85L124.664 726.619L126.204 733.442C126.302 733.878 126.306 734.33 126.216 734.768C126.126 735.206 125.943 735.62 125.679 735.981C125.416 736.343 125.079 736.644 124.69 736.865C124.301 737.085 123.87 737.22 123.424 737.26L27.4174 745.548C27.33 745.548 27.2298 745.56 27.1423 745.56C26.3502 745.556 25.5894 745.251 25.0132 744.707C24.4371 744.163 24.0885 743.421 24.0377 742.631L23.1239 728.723L22.147 713.85L21.7216 707.403L20.7576 692.568L14.3607 595.122V595.034L14.373 594.959Z" fill="#6C63FF"/>
<path d="M171.903 601.149C171.75 601.824 171.65 602.511 171.604 603.202L117.826 634.226L104.755 626.701L90.8198 644.944L118.783 664.874L180.135 616.473C182.638 617.399 185.363 617.542 187.948 616.881C190.533 616.221 192.856 614.789 194.607 612.776C196.359 610.764 197.456 608.265 197.753 605.614C198.05 602.962 197.533 600.283 196.271 597.933C195.008 595.582 193.06 593.672 190.685 592.456C188.31 591.239 185.621 590.775 182.976 591.124C180.331 591.473 177.855 592.619 175.877 594.41C173.899 596.201 172.513 598.551 171.903 601.149H171.903Z" fill="#A0616A"/>
<path d="M115.905 631.588C115.995 630.753 115.896 629.909 115.616 629.117C115.336 628.326 114.881 627.607 114.287 627.014L86.9162 599.638C84.2043 596.925 80.5843 595.313 76.7543 595.112C72.9242 594.911 69.1553 596.135 66.1742 598.548C63.1932 600.961 61.2111 604.393 60.6101 608.18C60.0092 611.968 60.8321 615.845 62.92 619.062L82.4118 649.097C83.2263 650.349 84.5041 651.227 85.9649 651.538C87.4257 651.849 88.9503 651.568 90.2041 650.756L113.369 635.723C114.074 635.267 114.668 634.659 115.107 633.944C115.546 633.228 115.819 632.423 115.905 631.588Z" fill="#3F3D56"/>
<path d="M20.7584 692.568L21.7223 707.403L119.857 705.375L116.966 692.568H20.7584Z" fill="#CCCCCC"/>
<path d="M22.1467 713.85L23.1244 728.722L124.665 726.619L121.771 713.85H22.1467Z" fill="#CCCCCC"/>
<path d="M59.8791 481C70.2854 481.001 80.2827 485.052 87.7541 492.296C95.2255 499.54 99.5844 509.407 99.9075 519.808H107.451C108.115 519.808 108.751 520.072 109.221 520.542C109.691 521.011 109.954 521.648 109.954 522.312V532.327C109.954 532.991 109.691 533.628 109.221 534.098C108.751 534.567 108.115 534.831 107.451 534.831H22.3226C21.6586 534.831 21.0217 534.567 20.5521 534.098C20.0826 533.628 19.8188 532.991 19.8188 532.327V521.06C19.8188 515.799 20.8549 510.59 22.8681 505.73C24.8814 500.869 27.8321 496.453 31.5521 492.733C35.272 489.013 39.6883 486.063 44.5486 484.049C49.409 482.036 54.6183 481 59.8791 481V481Z" fill="#6C63FF"/>
<path d="M355.5 563C335.894 563 320 547.106 320 527.5C320 507.894 335.894 492 355.5 492C375.106 492 391 507.894 391 527.5C391 547.106 375.106 563 355.5 563Z" fill="#3F3D56"/>
<path opacity="0.1" d="M355.5 558.03C338.639 558.03 324.97 544.361 324.97 527.5C324.97 510.639 338.639 496.97 355.5 496.97C372.361 496.97 386.03 510.639 386.03 527.5C386.03 544.361 372.361 558.03 355.5 558.03Z" fill="black"/>
<path d="M515.222 738.035C513.568 736.971 512.168 735.558 511.12 733.895C510.071 732.232 509.401 730.359 509.154 728.408C508.908 726.457 509.093 724.477 509.695 722.605C510.297 720.733 511.303 719.017 512.64 717.576L502.534 574.163L531.644 576.986L532.444 717.43C534.716 719.838 536.026 722.995 536.125 726.303C536.225 729.612 535.108 732.842 532.985 735.382C530.862 737.922 527.881 739.595 524.607 740.084C521.333 740.573 517.994 739.844 515.222 738.035L515.222 738.035Z" fill="#A0616A"/>
<path d="M509.124 622.351C508.442 621.861 507.879 621.224 507.477 620.487C507.074 619.75 506.842 618.933 506.797 618.094L504.664 579.441C504.453 575.611 505.667 571.839 508.073 568.852C510.478 565.865 513.904 563.874 517.691 563.263C521.477 562.652 525.356 563.465 528.578 565.545C531.801 567.624 534.139 570.823 535.143 574.525L544.513 609.083C544.902 610.525 544.703 612.063 543.96 613.358C543.218 614.654 541.991 615.602 540.55 615.994L513.896 623.221C513.087 623.442 512.237 623.479 511.412 623.328C510.586 623.178 509.804 622.844 509.124 622.351V622.351Z" fill="#3F3D56"/>
<path d="M459.51 914.348H444.162L436.861 855.149H459.512L459.51 914.348Z" fill="#A0616A"/>
<path d="M433.199 909.962H462.798V928.599H414.563C414.562 926.152 415.045 923.728 415.981 921.467C416.918 919.206 418.291 917.152 420.021 915.421C421.752 913.69 423.806 912.318 426.067 911.381C428.328 910.444 430.752 909.962 433.199 909.962V909.962Z" fill="#2F2E41"/>
<path d="M517.096 914.348H501.748L494.447 855.149H517.099L517.096 914.348Z" fill="#A0616A"/>
<path d="M490.786 909.962H520.385V928.599H472.149C472.149 926.152 472.631 923.728 473.568 921.467C474.504 919.206 475.877 917.152 477.607 915.421C479.338 913.69 481.393 912.318 483.654 911.381C485.915 910.444 488.338 909.962 490.786 909.962Z" fill="#2F2E41"/>
<path d="M458.785 884.525L441.889 883.719C440.45 883.651 439.091 883.034 438.093 881.995C437.095 880.955 436.533 879.573 436.523 878.132C432.069 809.38 425.9 735.659 435.344 707.18C435.339 706.368 435.508 705.565 435.842 704.825C436.176 704.085 436.665 703.426 437.277 702.893C437.889 702.36 438.608 701.965 439.387 701.736C440.165 701.506 440.984 701.448 441.787 701.564L509.381 711.377C510.716 711.564 511.94 712.226 512.826 713.243C513.712 714.259 514.202 715.561 514.205 716.91C522.835 750.631 523.225 811.78 522.898 875.316C522.904 876.059 522.762 876.796 522.482 877.485C522.201 878.173 521.787 878.799 521.263 879.327C520.74 879.854 520.117 880.273 519.431 880.559C518.744 880.845 518.008 880.992 517.265 880.992H499.05C497.706 880.997 496.405 880.52 495.384 879.647C494.362 878.773 493.688 877.562 493.485 876.234L482.247 804.792C482.083 803.747 481.546 802.796 480.735 802.116C479.925 801.436 478.895 801.072 477.838 801.091C476.78 801.111 475.764 801.512 474.98 802.222C474.195 802.932 473.693 803.902 473.568 804.952L464.647 879.568C464.478 880.934 463.817 882.193 462.787 883.107C461.757 884.021 460.429 884.528 459.052 884.532C458.963 884.532 458.874 884.53 458.785 884.525Z" fill="#2F2E41"/>
<path d="M470.679 716.917C455.782 708.641 444.143 706.466 438.53 705.906C437.785 705.834 437.061 705.611 436.404 705.251C435.747 704.891 435.17 704.401 434.708 703.811C434.235 703.218 433.889 702.534 433.688 701.802C433.488 701.07 433.438 700.305 433.542 699.553L449.738 579.309C450.671 572.274 453.388 565.595 457.631 559.908C461.874 554.22 467.502 549.712 473.979 546.814C480.249 543.932 487.152 542.702 494.032 543.241C500.911 543.78 507.538 546.071 513.283 549.895C513.838 550.264 514.382 550.641 514.917 551.026C521.532 555.872 526.564 562.569 529.379 570.271C532.194 577.974 532.666 586.337 530.736 594.307C520.804 634.937 517.393 701.546 516.809 714.487C516.764 715.59 516.392 716.654 515.742 717.547C515.092 718.439 514.192 719.119 513.156 719.5C507.046 721.721 500.597 722.869 494.096 722.894C485.906 722.944 477.842 720.885 470.679 716.917Z" fill="#3F3D56"/>
<path d="M484.227 530.487C501.208 530.487 514.974 516.721 514.974 499.74C514.974 482.758 501.208 468.992 484.227 468.992C467.245 468.992 453.479 482.758 453.479 499.74C453.479 516.721 467.245 530.487 484.227 530.487Z" fill="#A0616A"/>
<path d="M505.985 524.066C500.249 530.176 489.596 526.896 488.848 518.548C488.79 517.9 488.794 517.248 488.861 516.601C489.247 512.903 491.383 509.546 490.871 505.642C490.756 504.671 490.394 503.745 489.82 502.952C485.249 496.831 474.519 505.69 470.205 500.149C467.56 496.751 470.669 491.402 468.639 487.604C465.96 482.592 458.025 485.065 453.049 482.32C447.512 479.266 447.843 470.771 451.488 465.604C455.933 459.302 463.726 455.94 471.422 455.455C479.118 454.971 486.761 457.051 493.946 459.851C502.11 463.033 510.205 467.43 515.229 474.608C521.338 483.337 521.926 495.074 518.871 505.281C517.012 511.491 510.669 519.076 505.985 524.066Z" fill="#2F2E41"/>
<path d="M530.335 553.959C529.796 551.43 525.177 547.975 518.567 545.158C507.942 540.855 496.451 539.122 485.03 540.101C473.609 541.08 462.581 544.743 452.843 550.792C452.164 550.828 451.515 551.087 450.997 551.528C450.479 551.969 450.121 552.568 449.976 553.233L427.743 651.568L424.851 664.375L422.936 672.85L420.044 685.619L418.504 692.442C418.405 692.878 418.401 693.33 418.492 693.768C418.582 694.206 418.765 694.62 419.028 694.981C419.291 695.343 419.629 695.644 420.017 695.865C420.406 696.085 420.838 696.22 421.283 696.26L517.29 704.548C517.378 704.548 517.478 704.56 517.565 704.56C518.357 704.556 519.118 704.251 519.694 703.707C520.27 703.163 520.619 702.421 520.67 701.631L521.584 687.723L522.56 672.85L522.986 666.403L523.95 651.568L530.347 554.122V554.034L530.335 553.959Z" fill="#6C63FF"/>
<path d="M372.804 560.149C372.958 560.824 373.058 561.511 373.104 562.202L426.881 593.226L439.953 585.701L453.888 603.944L425.924 623.874L364.572 575.473C362.07 576.399 359.345 576.542 356.76 575.881C354.175 575.221 351.852 573.789 350.1 571.776C348.349 569.764 347.251 567.265 346.954 564.614C346.657 561.962 347.174 559.283 348.437 556.933C349.699 554.582 351.648 552.672 354.023 551.456C356.397 550.239 359.086 549.775 361.731 550.124C364.377 550.473 366.853 551.619 368.831 553.41C370.809 555.201 372.195 557.551 372.804 560.149H372.804Z" fill="#A0616A"/>
<path d="M428.802 590.588C428.712 589.753 428.811 588.909 429.092 588.117C429.372 587.326 429.826 586.607 430.421 586.014L457.791 558.638C460.503 555.925 464.123 554.313 467.953 554.112C471.783 553.911 475.552 555.135 478.533 557.548C481.514 559.961 483.496 563.393 484.097 567.18C484.698 570.968 483.875 574.845 481.788 578.062L462.296 608.097C461.481 609.349 460.203 610.227 458.743 610.538C457.282 610.849 455.757 610.568 454.503 609.756L431.338 594.723C430.633 594.267 430.039 593.659 429.6 592.944C429.161 592.228 428.889 591.423 428.802 590.588Z" fill="#3F3D56"/>
<path d="M523.949 651.568L522.985 666.403L424.85 664.375L427.742 651.568H523.949Z" fill="#CCCCCC"/>
<path d="M522.561 672.85L521.583 687.722L420.043 685.619L422.936 672.85H522.561Z" fill="#CCCCCC"/>
<path d="M484.828 440C474.422 440.001 464.425 444.052 456.953 451.296C449.482 458.54 445.123 468.407 444.8 478.808H437.257C436.593 478.808 435.956 479.072 435.486 479.542C435.017 480.011 434.753 480.648 434.753 481.312V491.327C434.753 491.991 435.017 492.628 435.486 493.098C435.956 493.567 436.593 493.831 437.257 493.831H522.385C523.049 493.831 523.686 493.567 524.155 493.098C524.625 492.628 524.888 491.991 524.888 491.327V480.06C524.888 474.799 523.852 469.59 521.839 464.73C519.826 459.869 516.875 455.453 513.155 451.733C509.435 448.013 505.019 445.063 500.159 443.049C495.298 441.036 490.089 440 484.828 440V440Z" fill="#6C63FF"/>
<path d="M652.5 576C632.894 576 617 560.106 617 540.5C617 520.894 632.894 505 652.5 505C672.106 505 688 520.894 688 540.5C688 560.106 672.106 576 652.5 576Z" fill="#3F3D56"/>
<path opacity="0.1" d="M652.5 571.03C635.639 571.03 621.97 557.361 621.97 540.5C621.97 523.639 635.639 509.97 652.5 509.97C669.361 509.97 683.03 523.639 683.03 540.5C683.03 557.361 669.361 571.03 652.5 571.03Z" fill="black"/>
<path d="M812.222 751.035C810.568 749.971 809.168 748.558 808.12 746.895C807.071 745.232 806.401 743.359 806.154 741.408C805.908 739.457 806.093 737.477 806.695 735.605C807.297 733.733 808.303 732.017 809.64 730.576L799.534 587.163L828.644 589.986L829.444 730.43C831.716 732.838 833.026 735.995 833.125 739.303C833.225 742.612 832.108 745.842 829.985 748.382C827.862 750.922 824.881 752.595 821.607 753.084C818.333 753.573 814.994 752.844 812.222 751.035L812.222 751.035Z" fill="#A0616A"/>
<path d="M806.124 635.351C805.442 634.861 804.879 634.224 804.477 633.487C804.074 632.75 803.842 631.933 803.797 631.094L801.664 592.441C801.453 588.611 802.667 584.839 805.073 581.852C807.478 578.865 810.904 576.874 814.691 576.263C818.477 575.652 822.356 576.465 825.578 578.545C828.801 580.624 831.139 583.823 832.143 587.525L841.513 622.083C841.902 623.525 841.703 625.063 840.96 626.358C840.218 627.654 838.991 628.602 837.55 628.994L810.896 636.221C810.087 636.442 809.237 636.479 808.412 636.328C807.586 636.178 806.804 635.844 806.124 635.351V635.351Z" fill="#3F3D56"/>
<path d="M756.51 927.348H741.162L733.861 868.149H756.512L756.51 927.348Z" fill="#A0616A"/>
<path d="M730.199 922.962H759.798V941.599H711.563C711.562 939.152 712.045 936.728 712.981 934.467C713.918 932.206 715.291 930.152 717.021 928.421C718.752 926.69 720.806 925.318 723.067 924.381C725.328 923.444 727.752 922.962 730.199 922.962V922.962Z" fill="#2F2E41"/>
<path d="M814.096 927.348H798.748L791.447 868.149H814.099L814.096 927.348Z" fill="#A0616A"/>
<path d="M787.786 922.962H817.385V941.599H769.149C769.149 939.152 769.631 936.728 770.568 934.467C771.504 932.206 772.877 930.152 774.607 928.421C776.338 926.69 778.393 925.318 780.654 924.381C782.915 923.444 785.338 922.962 787.786 922.962Z" fill="#2F2E41"/>
<path d="M755.785 897.525L738.889 896.719C737.45 896.651 736.091 896.034 735.093 894.995C734.095 893.955 733.533 892.573 733.523 891.132C729.069 822.38 722.9 748.659 732.344 720.18C732.339 719.368 732.508 718.565 732.842 717.825C733.176 717.085 733.665 716.426 734.277 715.893C734.889 715.36 735.608 714.965 736.387 714.736C737.165 714.506 737.984 714.448 738.787 714.564L806.381 724.377C807.716 724.564 808.94 725.226 809.826 726.243C810.712 727.259 811.202 728.561 811.205 729.91C819.835 763.631 820.225 824.78 819.898 888.316C819.904 889.059 819.762 889.796 819.482 890.485C819.201 891.173 818.787 891.799 818.263 892.327C817.74 892.854 817.117 893.273 816.431 893.559C815.744 893.845 815.008 893.992 814.265 893.992H796.05C794.706 893.997 793.405 893.52 792.384 892.647C791.362 891.773 790.688 890.562 790.485 889.234L779.247 817.792C779.083 816.747 778.546 815.796 777.735 815.116C776.925 814.436 775.895 814.072 774.838 814.091C773.78 814.111 772.764 814.512 771.98 815.222C771.195 815.932 770.693 816.902 770.568 817.952L761.647 892.568C761.478 893.934 760.817 895.193 759.787 896.107C758.757 897.021 757.429 897.528 756.052 897.532C755.963 897.532 755.874 897.53 755.785 897.525Z" fill="#2F2E41"/>
<path d="M767.679 729.917C752.782 721.641 741.143 719.466 735.53 718.906C734.785 718.834 734.061 718.611 733.404 718.251C732.747 717.891 732.17 717.401 731.708 716.811C731.235 716.218 730.889 715.534 730.688 714.802C730.488 714.07 730.438 713.305 730.542 712.553L746.738 592.309C747.671 585.274 750.388 578.595 754.631 572.908C758.874 567.22 764.502 562.712 770.979 559.814C777.249 556.932 784.152 555.702 791.032 556.241C797.911 556.78 804.538 559.071 810.283 562.895C810.838 563.264 811.382 563.641 811.917 564.026C818.532 568.872 823.564 575.569 826.379 583.271C829.194 590.974 829.666 599.337 827.736 607.307C817.804 647.937 814.393 714.546 813.809 727.487C813.764 728.59 813.392 729.654 812.742 730.547C812.092 731.439 811.192 732.119 810.156 732.5C804.046 734.721 797.597 735.869 791.096 735.894C782.906 735.944 774.842 733.885 767.679 729.917Z" fill="#3F3D56"/>
<path d="M781.227 543.487C798.208 543.487 811.974 529.721 811.974 512.74C811.974 495.758 798.208 481.992 781.227 481.992C764.245 481.992 750.479 495.758 750.479 512.74C750.479 529.721 764.245 543.487 781.227 543.487Z" fill="#A0616A"/>
<path d="M802.985 537.066C797.249 543.176 786.596 539.896 785.848 531.548C785.79 530.9 785.794 530.248 785.861 529.601C786.247 525.903 788.383 522.546 787.871 518.642C787.756 517.671 787.394 516.745 786.82 515.952C782.249 509.831 771.519 518.69 767.205 513.149C764.56 509.751 767.669 504.402 765.639 500.604C762.96 495.592 755.025 498.065 750.049 495.32C744.512 492.266 744.843 483.771 748.488 478.604C752.933 472.302 760.726 468.94 768.422 468.455C776.118 467.971 783.761 470.051 790.946 472.851C799.11 476.033 807.205 480.43 812.229 487.608C818.338 496.337 818.926 508.074 815.871 518.281C814.012 524.491 807.669 532.076 802.985 537.066Z" fill="#2F2E41"/>
<path d="M827.335 566.959C826.796 564.43 822.177 560.975 815.567 558.158C804.942 553.855 793.451 552.122 782.03 553.101C770.609 554.08 759.581 557.743 749.843 563.792C749.164 563.828 748.515 564.087 747.997 564.528C747.479 564.969 747.121 565.568 746.976 566.233L724.743 664.568L721.851 677.375L719.936 685.85L717.044 698.619L715.504 705.442C715.405 705.878 715.401 706.33 715.492 706.768C715.582 707.206 715.765 707.62 716.028 707.981C716.291 708.343 716.629 708.644 717.017 708.865C717.406 709.085 717.838 709.22 718.283 709.26L814.29 717.548C814.378 717.548 814.478 717.56 814.565 717.56C815.357 717.556 816.118 717.251 816.694 716.707C817.27 716.163 817.619 715.421 817.67 714.631L818.584 700.723L819.56 685.85L819.986 679.403L820.95 664.568L827.347 567.122V567.034L827.335 566.959Z" fill="#6C63FF"/>
<path d="M669.804 573.149C669.958 573.824 670.058 574.511 670.104 575.202L723.881 606.226L736.953 598.701L750.888 616.944L722.924 636.874L661.572 588.473C659.07 589.399 656.345 589.542 653.76 588.881C651.175 588.221 648.852 586.789 647.1 584.776C645.349 582.764 644.251 580.265 643.954 577.614C643.657 574.962 644.174 572.283 645.437 569.933C646.699 567.582 648.648 565.672 651.023 564.456C653.397 563.239 656.086 562.775 658.731 563.124C661.377 563.473 663.853 564.619 665.831 566.41C667.809 568.201 669.195 570.551 669.804 573.149H669.804Z" fill="#A0616A"/>
<path d="M725.802 603.588C725.712 602.753 725.811 601.909 726.092 601.117C726.372 600.326 726.826 599.607 727.421 599.014L754.791 571.638C757.503 568.925 761.123 567.313 764.953 567.112C768.783 566.911 772.552 568.135 775.533 570.548C778.514 572.961 780.496 576.393 781.097 580.18C781.698 583.968 780.875 587.845 778.788 591.062L759.296 621.097C758.481 622.349 757.203 623.227 755.743 623.538C754.282 623.849 752.757 623.568 751.503 622.756L728.338 607.723C727.633 607.267 727.039 606.659 726.6 605.944C726.161 605.228 725.889 604.423 725.802 603.588Z" fill="#3F3D56"/>
<path d="M820.949 664.568L819.985 679.403L721.85 677.375L724.742 664.568H820.949Z" fill="#CCCCCC"/>
<path d="M819.561 685.85L818.583 700.722L717.043 698.619L719.936 685.85H819.561Z" fill="#CCCCCC"/>
<path d="M781.828 453C771.422 453.001 761.425 457.052 753.953 464.296C746.482 471.54 742.123 481.407 741.8 491.808H734.257C733.593 491.808 732.956 492.072 732.486 492.542C732.017 493.011 731.753 493.648 731.753 494.312V504.327C731.753 504.991 732.017 505.628 732.486 506.098C732.956 506.567 733.593 506.831 734.257 506.831H819.385C820.049 506.831 820.686 506.567 821.155 506.098C821.625 505.628 821.888 504.991 821.888 504.327V493.06C821.888 487.799 820.852 482.59 818.839 477.73C816.826 472.869 813.875 468.453 810.155 464.733C806.435 461.013 802.019 458.063 797.159 456.049C792.298 454.036 787.089 453 781.828 453V453Z" fill="#6C63FF"/>
<path d="M397.938 101H341.938V84C359.633 71.6851 375.312 72.7556 395.938 85L397.938 101Z" fill="#6C63FF"/>
<path d="M328.97 402.957L316.71 402.956L314.877 355.668L328.972 355.669L328.97 402.957Z" fill="#FFB8B8"/>
<path d="M332.096 414.841L292.565 414.839V414.339C292.565 412.319 292.963 410.318 293.737 408.451C294.51 406.584 295.643 404.888 297.072 403.459C298.501 402.031 300.197 400.897 302.064 400.124C303.931 399.351 305.931 398.953 307.952 398.953H307.953L332.097 398.954L332.096 414.841Z" fill="#2F2E41"/>
<path d="M398.023 402.957L410.283 402.956L412.116 355.668L398.021 355.669L398.023 402.957Z" fill="#FFB8B8"/>
<path d="M394.896 398.954L419.04 398.953H419.041C421.062 398.953 423.063 399.351 424.929 400.124C426.796 400.897 428.492 402.031 429.921 403.459C431.35 404.888 432.483 406.584 433.257 408.451C434.03 410.318 434.428 412.319 434.428 414.339V414.839L394.897 414.841L394.896 398.954Z" fill="#2F2E41"/>
<path d="M398.345 396.896C397.322 396.893 396.331 396.543 395.533 395.903C394.734 395.263 394.177 394.371 393.951 393.374L363.565 260.834C363.498 260.498 363.315 260.195 363.047 259.981C362.779 259.766 362.444 259.653 362.101 259.661H362.093C361.748 259.654 361.413 259.77 361.145 259.988C360.878 260.205 360.697 260.51 360.633 260.849L332.728 392.495C332.511 393.502 331.956 394.404 331.155 395.053C330.354 395.701 329.356 396.057 328.326 396.061H315.033C314.42 396.061 313.813 395.936 313.25 395.693C312.687 395.45 312.179 395.094 311.759 394.648C311.338 394.201 311.013 393.674 310.804 393.097C310.594 392.521 310.505 391.908 310.541 391.295L320.442 224.44L324.426 223.261L324.501 223.262L402.759 223.947L419.426 390.619C419.485 391.213 419.424 391.813 419.248 392.384C419.071 392.955 418.783 393.485 418.4 393.943C418.017 394.401 417.546 394.778 417.016 395.052C416.485 395.327 415.905 395.493 415.31 395.541L398.706 396.881C398.585 396.891 398.465 396.896 398.345 396.896Z" fill="#2F2E41"/>
<path d="M366.028 70.5319C379.593 70.5319 390.589 59.5355 390.589 45.9708C390.589 32.4061 379.593 21.4098 366.028 21.4098C352.464 21.4098 341.467 32.4061 341.467 45.9708C341.467 59.5355 352.464 70.5319 366.028 70.5319Z" fill="#FFB8B8"/>
<path d="M350.982 242.734C346.673 242.787 342.381 242.183 338.255 240.943C334.584 239.836 331.179 237.99 328.249 235.517C325.319 233.045 322.926 230 321.217 226.568C320.675 225.535 320.555 224.333 320.882 223.213C323.59 213.968 336.68 165.913 328.328 127.71C327.149 122.403 327.051 116.913 328.04 111.568C329.029 106.222 331.084 101.13 334.083 96.5962C337.013 92.0976 340.818 88.2351 345.273 85.239C349.727 82.2429 354.739 80.1747 360.01 79.1577L360.011 79.1567C361.396 78.8862 362.789 78.6645 364.15 78.4966C369.977 77.7794 375.89 78.3589 381.466 80.1937C387.043 82.0285 392.145 85.0731 396.408 89.1098C400.797 93.2258 404.222 98.2613 406.437 103.856C408.653 109.45 409.604 115.465 409.223 121.47L402.804 224.474C402.76 225.246 402.516 225.994 402.095 226.643C401.675 227.292 401.093 227.821 400.406 228.177C393.014 232.051 370.807 242.734 350.982 242.734Z" fill="#3F3D56"/>
<path d="M393.775 27.8917C391.224 21.4798 386.55 16.1369 380.535 12.7548C374.52 9.37274 367.526 8.15611 360.722 9.30801L368.466 15.5658C358.845 15.8898 348.717 15.2009 341.847 21.9451C344.034 21.8845 346.9 26.5625 349.087 26.5018C344.998 26.5827 341.291 29.4556 339.485 33.125C337.812 36.8947 337.421 41.1088 338.371 45.1221C339.178 49.1313 345.339 58.5237 346.997 62.2622C346.712 52.492 365.946 29.1878 375.339 31.6199C370.567 33.3904 366.426 36.5343 363.438 40.6551C369.828 37.4304 377.055 36.2479 384.139 37.2681C385.757 37.639 387.425 37.7324 389.074 37.5443C390.085 37.3444 391.027 36.8888 391.811 36.2209C392.596 35.553 393.196 34.6952 393.554 33.7294C393.912 32.7636 394.017 31.7221 393.858 30.7043C393.699 29.6865 393.282 28.7264 392.646 27.9158L393.775 27.8917Z" fill="#2F2E41"/>
<path d="M349.29 236.549C348.669 236.548 348.056 236.418 347.488 236.168L300.887 215.828C299.897 215.404 299.094 214.636 298.625 213.667C298.156 212.697 298.053 211.591 298.334 210.551L329.184 94.0122C329.758 91.8437 330.758 89.8115 332.126 88.0343C333.495 86.2572 335.204 84.7709 337.154 83.6625C339.104 82.554 341.256 81.8457 343.483 81.5789C345.71 81.3122 347.968 81.4923 350.125 82.1089L362.46 85.6294L353.776 232.31C353.732 233.034 353.513 233.736 353.14 234.357C352.766 234.979 352.248 235.501 351.63 235.88C350.927 236.315 350.117 236.547 349.29 236.549V236.549Z" fill="#6C63FF"/>
<path d="M435.538 210.55L433.487 202.82L430.518 191.58L429.087 186.19L426.118 174.98L404.688 94.0101C404.116 91.8407 403.117 89.8073 401.748 88.0292C400.38 86.2512 398.671 84.7644 396.72 83.6559C394.77 82.5475 392.618 81.8398 390.39 81.5743C388.162 81.3088 385.904 81.491 383.748 82.11L371.417 85.63L377.527 188.8L378.158 199.57L378.558 206.36V206.37L379.197 217.08L380.098 232.31C380.171 233.454 380.675 234.527 381.508 235.314C382.341 236.1 383.442 236.542 384.587 236.55C385.207 236.546 385.819 236.417 386.388 236.17L432.987 215.83C433.978 215.406 434.782 214.638 435.25 213.667C435.719 212.697 435.821 211.59 435.538 210.55V210.55Z" fill="#6C63FF"/>
<path d="M429.087 186.19L378.158 199.57L377.527 188.8L426.118 174.98L429.087 186.19Z" fill="#CCCCCC"/>
<path d="M433.487 202.82L379.197 217.08L378.558 206.37V206.36L430.518 191.58L433.487 202.82Z" fill="#CCCCCC"/>
<path d="M355.718 191.12L355.087 201.69L305.138 186.81L308.067 175.75L355.718 191.12Z" fill="#CCCCCC"/>
<path d="M354.677 208.65L303.707 192.2L300.777 203.29L354.057 219.16L354.677 208.65Z" fill="#CCCCCC"/>
<path d="M304.596 219.704C306.116 219.307 307.53 218.582 308.739 217.58C309.948 216.578 310.923 215.323 311.594 213.903C312.266 212.483 312.618 210.934 312.626 209.363C312.634 207.793 312.297 206.24 311.64 204.813L335.602 129.588L318.61 126.029L296.641 199.782C294.318 201.045 292.539 203.117 291.642 205.604C290.744 208.091 290.79 210.821 291.77 213.276C292.751 215.732 294.598 217.743 296.962 218.927C299.326 220.112 302.042 220.388 304.596 219.704V219.704Z" fill="#FFB8B8"/>
<path d="M336.267 92.6058C341.146 93.1035 343.89 98.5893 342.677 105.42L336.856 138.198C336.419 140.655 334.397 142.601 332.716 142.181L313.026 137.259C311.511 136.88 310.953 134.727 311.811 132.574L323.632 102.92C326.199 96.4802 331.536 92.1232 336.267 92.6058Z" fill="#3F3D56"/>
<path d="M365.938 5.64114e-10C374.25 0.000891585 382.236 3.23708 388.204 9.0233C394.172 14.8095 397.654 22.6914 397.912 31H403.938C404.468 31 404.977 31.2107 405.352 31.5858C405.727 31.9609 405.937 32.4696 405.938 33V41C405.937 41.5304 405.727 42.0391 405.352 42.4142C404.977 42.7893 404.468 43 403.938 43H335.938C335.407 43 334.898 42.7893 334.523 42.4142C334.148 42.0391 333.938 41.5304 333.938 41V31.9999C333.937 27.7976 334.765 23.6365 336.373 19.7541C337.981 15.8716 340.339 12.344 343.31 9.37251C346.282 6.40104 349.809 4.04393 353.692 2.43579C357.574 0.827653 361.735 -2.49508e-05 365.938 5.64114e-10Z" fill="#6C63FF"/>
<path d="M363.631 135.107C376.488 152.209 386.652 171.179 393.77 191.356C394.183 192.563 394.153 193.877 393.688 195.065C393.222 196.252 392.35 197.236 391.227 197.84L347.229 221.415C346.517 221.799 345.727 222.016 344.919 222.049C344.111 222.082 343.306 221.93 342.565 221.605C341.811 221.277 341.141 220.781 340.607 220.155C340.073 219.53 339.689 218.791 339.484 217.994C334.363 198.55 324.737 180.585 311.385 165.552C310.835 164.94 310.432 164.211 310.207 163.42C309.982 162.629 309.94 161.796 310.085 160.987C310.224 160.19 310.543 159.435 311.018 158.781C311.493 158.126 312.111 157.588 312.826 157.208L356.823 133.634C357.949 133.033 359.251 132.852 360.497 133.122C361.744 133.392 362.854 134.095 363.631 135.107V135.107Z" fill="#CCCCCC"/>
<path d="M360.628 137.363C360.391 137.068 360.059 136.864 359.688 136.788C359.317 136.711 358.932 136.766 358.597 136.944L314.599 160.519C314.386 160.63 314.201 160.79 314.059 160.985C313.917 161.179 313.823 161.405 313.782 161.642C313.736 161.893 313.749 162.151 313.82 162.396C313.89 162.641 314.017 162.866 314.189 163.054C327.935 178.53 337.845 197.025 343.116 217.042C343.177 217.289 343.295 217.519 343.459 217.713C343.624 217.907 343.831 218.061 344.065 218.162C344.286 218.261 344.526 218.307 344.767 218.297C345.008 218.287 345.244 218.221 345.455 218.104L389.452 194.53C389.786 194.35 390.046 194.059 390.187 193.707C390.329 193.356 390.343 192.966 390.228 192.605C383.238 172.789 373.255 154.159 360.628 137.363V137.363Z" fill="white"/>
<path d="M344.34 187.771L368.303 177.193C369.215 176.792 370.248 176.769 371.176 177.129C372.105 177.489 372.853 178.202 373.256 179.112L373.848 180.455C374.25 181.366 374.273 182.4 373.913 183.328C373.553 184.257 372.84 185.004 371.929 185.408L347.966 195.985C347.055 196.387 346.022 196.41 345.093 196.05C344.165 195.69 343.417 194.977 343.014 194.066L342.421 192.724C342.02 191.812 341.997 190.779 342.357 189.851C342.716 188.922 343.43 188.174 344.34 187.771V187.771Z" fill="#CCCCCC"/>
<path d="M335.577 171.497L359.54 160.919C360.451 160.518 361.485 160.495 362.413 160.854C363.342 161.214 364.089 161.927 364.493 162.838L365.085 164.181C365.486 165.092 365.51 166.125 365.15 167.054C364.79 167.982 364.077 168.73 363.166 169.133L339.203 179.711C338.292 180.112 337.258 180.135 336.33 179.776C335.402 179.416 334.654 178.702 334.251 177.792L333.658 176.449C333.257 175.538 333.234 174.505 333.593 173.576C333.953 172.648 334.667 171.9 335.577 171.497V171.497Z" fill="#CCCCCC"/>
<path d="M362.997 182.251C363.546 182.315 364.09 182.422 364.623 182.571L402.269 150.287L400.069 138.441L417.511 132.784L423.445 153.375C423.924 155.038 423.851 156.813 423.236 158.431C422.622 160.049 421.498 161.425 420.036 162.35L372.358 192.521C372.392 194.652 371.776 196.743 370.592 198.516C369.409 200.289 367.713 201.659 365.732 202.445C363.75 203.231 361.576 203.395 359.499 202.915C357.423 202.435 355.541 201.334 354.105 199.759C352.669 198.184 351.746 196.208 351.46 194.096C351.174 191.984 351.538 189.834 352.503 187.934C353.468 186.033 354.99 184.471 356.864 183.456C358.739 182.441 360.878 182.021 362.997 182.252V182.251Z" fill="#FFB8B8"/>
<path d="M402.367 95.3133C407.579 93.8544 412.786 97.8212 414.531 104.579L422.905 137.009C423.532 139.44 422.313 142.024 420.409 142.298L398.102 145.506C396.386 145.753 394.874 143.993 394.811 141.675L393.945 109.762C393.757 102.831 397.314 96.7278 402.367 95.3133Z" fill="#3F3D56"/>
<path d="M192.635 561.992C192.811 562.552 192.923 563.144 192.971 563.768H194.123V565.88H192.971C192.731 568.776 191.203 570.224 188.387 570.224H188.339L193.523 578H190.115L184.907 570.224V567.632H187.931C188.619 567.632 189.107 567.496 189.395 567.224C189.699 566.936 189.891 566.488 189.971 565.88H184.907V563.768H189.971C189.907 563.144 189.723 562.696 189.419 562.424C189.131 562.136 188.635 561.992 187.931 561.992H184.907V559.424H194.123V561.992H192.635Z" fill="#03045E"/>
<path d="M358.635 520.992C358.811 521.552 358.923 522.144 358.971 522.768H360.123V524.88H358.971C358.731 527.776 357.203 529.224 354.387 529.224H354.339L359.523 537H356.115L350.907 529.224V526.632H353.931C354.619 526.632 355.107 526.496 355.395 526.224C355.699 525.936 355.891 525.488 355.971 524.88H350.907V522.768H355.971C355.907 522.144 355.723 521.696 355.419 521.424C355.131 521.136 354.635 520.992 353.931 520.992H350.907V518.424H360.123V520.992H358.635Z" fill="#03045E"/>
<path d="M357.635 395.992C357.811 396.552 357.923 397.144 357.971 397.768H359.123V399.88H357.971C357.731 402.776 356.203 404.224 353.387 404.224H353.339L358.523 412H355.115L349.907 404.224V401.632H352.931C353.619 401.632 354.107 401.496 354.395 401.224C354.699 400.936 354.891 400.488 354.971 399.88H349.907V397.768H354.971C354.907 397.144 354.723 396.696 354.419 396.424C354.131 396.136 353.635 395.992 352.931 395.992H349.907V393.424H359.123V395.992H357.635Z" fill="#03045E"/>
<path d="M429.635 349.992C429.811 350.552 429.923 351.144 429.971 351.768H431.123V353.88H429.971C429.731 356.776 428.203 358.224 425.387 358.224H425.339L430.523 366H427.115L421.907 358.224V355.632H424.931C425.619 355.632 426.107 355.496 426.395 355.224C426.699 354.936 426.891 354.488 426.971 353.88H421.907V351.768H426.971C426.907 351.144 426.723 350.696 426.419 350.424C426.131 350.136 425.635 349.992 424.931 349.992H421.907V347.424H431.123V349.992H429.635Z" fill="#03045E"/>
<path d="M655.635 533.992C655.811 534.552 655.923 535.144 655.971 535.768H657.123V537.88H655.971C655.731 540.776 654.203 542.224 651.387 542.224H651.339L656.523 550H653.115L647.907 542.224V539.632H650.931C651.619 539.632 652.107 539.496 652.395 539.224C652.699 538.936 652.891 538.488 652.971 537.88H647.907V535.768H652.971C652.907 535.144 652.723 534.696 652.419 534.424C652.131 534.136 651.635 533.992 650.931 533.992H647.907V531.424H657.123V533.992H655.635Z" fill="#03045E"/>
</svg>
