<svg width="1013" height="637" viewBox="0 0 1013 637" fill="none" xmlns="http://www.w3.org/2000/svg">
<g clip-path="url(#clip0)">
<path d="M664 92.9343H559V94.9343H664V92.9343Z" fill="#3F3D56"/>
<path d="M477 92.9343H144V94.9343H477V92.9343Z" fill="#3F3D56"/>
<path d="M144 134.934C166.644 134.934 185 116.578 185 93.9343C185 71.2907 166.644 52.9343 144 52.9343C121.356 52.9343 103 71.2907 103 93.9343C103 116.578 121.356 134.934 144 134.934Z" fill="#D0CDE1"/>
<path d="M331 134.934C353.644 134.934 372 116.578 372 93.9343C372 71.2907 353.644 52.9343 331 52.9343C308.356 52.9343 290 71.2907 290 93.9343C290 116.578 308.356 134.934 331 134.934Z" fill="#3F3D56"/>
<path d="M518 135.934C509.693 135.934 501.573 133.471 494.666 128.856C487.759 124.241 482.376 117.681 479.197 110.007C476.018 102.332 475.186 93.8877 476.807 85.7405C478.428 77.5933 482.428 70.1096 488.302 64.2358C494.175 58.362 501.659 54.3619 509.806 52.7413C517.953 51.1207 526.398 51.9525 534.073 55.1313C541.747 58.3102 548.307 63.6935 552.922 70.6003C557.537 77.5072 560 85.6275 560 93.9343C559.987 105.07 555.558 115.745 547.685 123.619C539.811 131.493 529.135 135.922 518 135.934V135.934ZM518 53.9343C510.089 53.9343 502.355 56.2802 495.777 60.6755C489.199 65.0708 484.072 71.3179 481.045 78.627C478.017 85.936 477.225 93.9787 478.769 101.738C480.312 109.497 484.122 116.624 489.716 122.219C495.31 127.813 502.437 131.622 510.196 133.166C517.956 134.709 525.998 133.917 533.307 130.889C540.616 127.862 546.864 122.735 551.259 116.157C555.654 109.579 558 101.846 558 93.9343C557.988 83.3293 553.77 73.1622 546.271 65.6633C538.772 58.1645 528.605 53.9463 518 53.9343Z" fill="#3F3D56"/>
<path d="M705 135.934C696.693 135.934 688.573 133.471 681.666 128.856C674.759 124.241 669.376 117.681 666.197 110.007C663.018 102.332 662.186 93.8877 663.807 85.7405C665.428 77.5933 669.428 70.1096 675.301 64.2358C681.175 58.362 688.659 54.3619 696.806 52.7413C704.953 51.1207 713.398 51.9525 721.073 55.1313C728.747 58.3102 735.307 63.6935 739.922 70.6003C744.537 77.5072 747 85.6275 747 93.9343C746.987 105.07 742.558 115.745 734.685 123.619C726.811 131.493 716.135 135.922 705 135.934V135.934ZM705 53.9343C697.089 53.9343 689.355 56.2802 682.777 60.6755C676.199 65.0708 671.072 71.3179 668.045 78.627C665.017 85.936 664.225 93.9787 665.769 101.738C667.312 109.497 671.122 116.624 676.716 122.219C682.31 127.813 689.437 131.622 697.196 133.166C704.956 134.709 712.998 133.917 720.307 130.889C727.616 127.862 733.863 122.735 738.259 116.157C742.654 109.579 745 101.846 745 93.9343C744.988 83.3293 740.77 73.1622 733.271 65.6633C725.772 58.1645 715.605 53.9463 705 53.9343Z" fill="#3F3D56"/>
<path d="M138.348 111.377L120.58 87.688L126.98 82.887L139.213 99.197L195.452 42.959L201.108 48.615L138.348 111.377Z" fill="#3F3D56"/>
<path d="M832.595 633.831H16V636.613H832.595V633.831Z" fill="#3F3D56"/>
<path d="M474.793 266.434C474.793 266.434 557.793 270.434 562.793 299.434C567.793 328.434 465.793 302.434 465.793 302.434L474.793 266.434Z" fill="#A0616A"/>
<path opacity="0.1" d="M403.293 248.934L387.412 306.159L414.293 250.822L403.293 248.934Z" fill="black"/>
<path d="M713.293 234.934H329.293V635.934H713.293V234.934Z" fill="#D0CDE1"/>
<path d="M653.293 322.934H369.293V362.934H653.293V322.934Z" fill="#03045E"/>
<path d="M604.111 428.934H418.116V448.934H604.111V428.934Z" fill="#03045E"/>
<path d="M604.47 463.934H418.475V483.934H604.47V463.934Z" fill="#03045E"/>
<path d="M511.832 498.934H418.834V518.934H511.832V498.934Z" fill="#03045E"/>
<path d="M658.293 599.934H615.293V619.934H658.293V599.934Z" fill="#03045E"/>
<path d="M189.631 492.986C202.488 475.883 212.652 456.914 219.77 436.736C220.182 435.53 220.153 434.215 219.687 433.028C219.222 431.841 218.35 430.857 217.227 430.253L173.229 406.678C172.517 406.293 171.727 406.076 170.919 406.044C170.111 406.011 169.305 406.163 168.565 406.488C167.811 406.816 167.141 407.312 166.607 407.937C166.073 408.563 165.689 409.302 165.484 410.099C160.363 429.542 150.737 447.508 137.384 462.541C136.835 463.153 136.432 463.882 136.207 464.673C135.981 465.464 135.94 466.296 136.085 467.106C136.224 467.903 136.543 468.657 137.018 469.312C137.493 469.967 138.111 470.505 138.825 470.884L182.823 494.459C183.949 495.059 185.25 495.241 186.497 494.971C187.744 494.701 188.854 493.998 189.631 492.986V492.986Z" fill="#CCCCCC"/>
<path d="M186.628 490.73C186.392 491.025 186.059 491.229 185.688 491.305C185.318 491.382 184.932 491.327 184.598 491.149L140.6 467.574C140.386 467.462 140.201 467.303 140.059 467.108C139.917 466.913 139.823 466.688 139.783 466.451C139.737 466.2 139.75 465.942 139.82 465.697C139.891 465.452 140.017 465.227 140.189 465.039C153.935 449.562 163.845 431.068 169.117 411.051C169.178 410.804 169.295 410.574 169.46 410.38C169.624 410.185 169.832 410.032 170.066 409.931C170.286 409.832 170.526 409.786 170.767 409.796C171.008 409.806 171.244 409.872 171.456 409.988L215.453 433.563C215.786 433.743 216.046 434.034 216.188 434.385C216.329 434.737 216.344 435.127 216.228 435.487C209.238 455.304 199.255 473.934 186.628 490.73V490.73Z" fill="white"/>
<path d="M170.34 440.322L194.303 450.899C195.215 451.301 196.248 451.324 197.177 450.964C198.105 450.604 198.853 449.891 199.256 448.98L199.849 447.638C200.25 446.726 200.273 445.693 199.913 444.765C199.553 443.836 198.84 443.088 197.929 442.685L173.966 432.107C173.055 431.706 172.022 431.683 171.093 432.043C170.165 432.403 169.417 433.116 169.014 434.026L168.421 435.369C168.02 436.281 167.997 437.314 168.357 438.242C168.717 439.171 169.43 439.918 170.34 440.322V440.322Z" fill="#CCCCCC"/>
<path d="M161.577 456.596L185.54 467.174C186.452 467.575 187.485 467.598 188.413 467.238C189.342 466.879 190.089 466.165 190.493 465.255L191.085 463.912C191.486 463.001 191.51 461.968 191.15 461.039C190.79 460.111 190.077 459.363 189.166 458.96L165.203 448.382C164.292 447.981 163.259 447.957 162.33 448.317C161.402 448.677 160.654 449.39 160.251 450.301L159.658 451.644C159.257 452.555 159.234 453.588 159.593 454.517C159.953 455.445 160.667 456.193 161.577 456.596V456.596Z" fill="#CCCCCC"/>
<path d="M217.778 443.035C219.432 441.971 220.832 440.558 221.88 438.895C222.929 437.232 223.599 435.359 223.846 433.408C224.092 431.457 223.907 429.477 223.305 427.605C222.703 425.733 221.697 424.017 220.36 422.576L230.466 279.163L201.356 281.986L200.556 422.43C198.284 424.838 196.974 427.995 196.875 431.303C196.775 434.612 197.892 437.842 200.015 440.382C202.138 442.922 205.119 444.595 208.393 445.084C211.667 445.573 215.006 444.844 217.778 443.035L217.778 443.035Z" fill="#A0616A"/>
<path d="M223.876 327.351C224.558 326.861 225.121 326.224 225.524 325.487C225.926 324.75 226.159 323.933 226.203 323.094L228.336 284.441C228.547 280.611 227.333 276.839 224.928 273.852C222.522 270.865 219.096 268.874 215.31 268.263C211.523 267.652 207.645 268.465 204.422 270.545C201.199 272.624 198.861 275.823 197.857 279.525L188.487 314.083C188.098 315.525 188.297 317.063 189.04 318.358C189.783 319.654 191.009 320.602 192.45 320.994L219.104 328.221C219.914 328.442 220.763 328.479 221.589 328.328C222.415 328.178 223.196 327.844 223.876 327.351V327.351Z" fill="#3F3D56"/>
<path d="M273.49 619.348H288.838L296.139 560.149H273.488L273.49 619.348Z" fill="#A0616A"/>
<path d="M299.801 614.962H270.202V633.599H318.438C318.438 631.152 317.956 628.728 317.019 626.467C316.083 624.206 314.71 622.152 312.979 620.421C311.249 618.69 309.194 617.318 306.933 616.381C304.672 615.444 302.248 614.962 299.801 614.962V614.962Z" fill="#2F2E41"/>
<path d="M215.904 619.348H231.252L238.553 560.149H215.901L215.904 619.348Z" fill="#A0616A"/>
<path d="M242.215 614.962H212.615V633.599H260.851C260.851 631.152 260.369 628.728 259.433 626.467C258.496 624.206 257.123 622.152 255.393 620.421C253.662 618.69 251.608 617.318 249.346 616.381C247.085 615.444 244.662 614.962 242.215 614.962Z" fill="#2F2E41"/>
<path d="M274.215 589.525L291.111 588.719C292.55 588.651 293.909 588.034 294.907 586.995C295.905 585.955 296.467 584.573 296.477 583.132C300.931 514.38 307.1 440.659 297.656 412.18C297.661 411.368 297.491 410.565 297.158 409.825C296.824 409.085 296.335 408.426 295.723 407.893C295.111 407.36 294.392 406.965 293.613 406.736C292.835 406.506 292.016 406.448 291.213 406.564L223.619 416.377C222.284 416.564 221.06 417.226 220.174 418.243C219.288 419.259 218.798 420.561 218.795 421.91C210.165 455.631 209.775 516.78 210.102 580.316C210.096 581.059 210.238 581.796 210.518 582.485C210.799 583.173 211.213 583.799 211.737 584.327C212.26 584.854 212.883 585.273 213.569 585.559C214.256 585.845 214.992 585.992 215.735 585.992H233.95C235.294 585.997 236.595 585.52 237.616 584.647C238.638 583.773 239.312 582.562 239.515 581.234L250.753 509.792C250.917 508.747 251.454 507.796 252.265 507.116C253.075 506.436 254.104 506.072 255.162 506.091C256.22 506.111 257.235 506.512 258.02 507.222C258.805 507.932 259.307 508.902 259.432 509.952L268.353 584.568C268.521 585.934 269.183 587.193 270.213 588.107C271.243 589.021 272.571 589.528 273.948 589.532C274.036 589.532 274.126 589.53 274.215 589.525Z" fill="#2F2E41"/>
<path d="M262.321 421.917C277.218 413.641 288.857 411.466 294.47 410.906C295.215 410.834 295.939 410.611 296.596 410.251C297.253 409.891 297.83 409.401 298.292 408.811C298.764 408.218 299.111 407.534 299.312 406.802C299.512 406.07 299.562 405.305 299.458 404.553L283.262 284.309C282.329 277.274 279.612 270.595 275.369 264.908C271.126 259.22 265.498 254.712 259.021 251.814C252.751 248.932 245.848 247.702 238.968 248.241C232.089 248.78 225.461 251.071 219.717 254.895C219.162 255.264 218.618 255.641 218.083 256.026C211.468 260.872 206.436 267.569 203.621 275.271C200.806 282.974 200.333 291.337 202.264 299.307C212.196 339.937 215.607 406.546 216.19 419.487C216.236 420.59 216.608 421.654 217.258 422.547C217.908 423.439 218.808 424.119 219.843 424.5C225.954 426.721 232.403 427.869 238.904 427.894C247.094 427.944 255.158 425.885 262.321 421.917Z" fill="#3F3D56"/>
<path d="M248.774 235.487C231.792 235.487 218.026 221.721 218.026 204.74C218.026 187.758 231.792 173.992 248.774 173.992C265.755 173.992 279.521 187.758 279.521 204.74C279.521 221.721 265.755 235.487 248.774 235.487Z" fill="#A0616A"/>
<path d="M227.015 229.066C232.751 235.176 243.404 231.896 244.151 223.548C244.21 222.9 244.206 222.248 244.139 221.601C243.753 217.903 241.617 214.546 242.128 210.642C242.244 209.671 242.606 208.745 243.18 207.952C247.751 201.831 258.481 210.69 262.795 205.149C265.44 201.751 262.331 196.402 264.361 192.604C267.04 187.592 274.975 190.065 279.951 187.32C285.488 184.266 285.157 175.771 281.512 170.604C277.067 164.302 269.274 160.94 261.578 160.455C253.882 159.971 246.239 162.051 239.054 164.851C230.89 168.033 222.795 172.43 217.771 179.608C211.662 188.337 211.074 200.074 214.129 210.281C215.988 216.491 222.331 224.076 227.015 229.066Z" fill="#2F2E41"/>
<path d="M202.666 258.959C203.204 256.43 207.824 252.975 214.433 250.158C225.058 245.855 236.549 244.122 247.97 245.101C259.391 246.08 270.42 249.743 280.157 255.792C280.836 255.828 281.485 256.087 282.003 256.528C282.521 256.969 282.879 257.568 283.024 258.233L305.258 356.568L308.149 369.375L310.065 377.85L312.957 390.619L314.496 397.442C314.595 397.878 314.599 398.33 314.509 398.768C314.418 399.206 314.235 399.62 313.972 399.981C313.709 400.343 313.372 400.644 312.983 400.865C312.594 401.085 312.162 401.22 311.717 401.26L215.71 409.548C215.623 409.548 215.522 409.56 215.435 409.56C214.643 409.556 213.882 409.251 213.306 408.707C212.73 408.163 212.381 407.421 212.33 406.631L211.417 392.723L210.44 377.85L210.014 371.403L209.05 356.568L202.653 259.122V259.034L202.666 258.959Z" fill="#6C63FF"/>
<path d="M360.196 265.149C360.042 265.824 359.942 266.511 359.896 267.202L306.119 298.226L293.047 290.701L279.112 308.944L307.076 328.874L368.428 280.473C370.93 281.399 373.655 281.542 376.24 280.881C378.825 280.221 381.148 278.789 382.9 276.776C384.651 274.764 385.749 272.265 386.046 269.614C386.343 266.962 385.826 264.283 384.563 261.933C383.301 259.582 381.352 257.672 378.978 256.456C376.603 255.239 373.914 254.775 371.269 255.124C368.624 255.473 366.147 256.619 364.169 258.41C362.192 260.201 360.806 262.551 360.196 265.149H360.196Z" fill="#A0616A"/>
<path d="M304.198 295.588C304.288 294.753 304.189 293.909 303.908 293.117C303.628 292.326 303.174 291.607 302.579 291.014L275.209 263.638C272.497 260.925 268.877 259.313 265.047 259.112C261.217 258.911 257.448 260.135 254.467 262.548C251.486 264.961 249.504 268.393 248.903 272.18C248.302 275.968 249.125 279.845 251.212 283.062L270.704 313.097C271.519 314.349 272.797 315.227 274.257 315.538C275.718 315.849 277.243 315.568 278.497 314.756L301.662 299.723C302.367 299.267 302.961 298.659 303.4 297.944C303.839 297.228 304.111 296.423 304.198 295.588Z" fill="#3F3D56"/>
<path d="M209.051 356.568L210.015 371.403L308.15 369.375L305.258 356.568H209.051Z" fill="#CCCCCC"/>
<path d="M210.439 377.85L211.417 392.722L312.957 390.619L310.064 377.85H210.439Z" fill="#CCCCCC"/>
<path d="M248.172 145C258.578 145.001 268.575 149.052 276.047 156.296C283.518 163.54 287.877 173.407 288.2 183.808H295.743C296.407 183.808 297.044 184.072 297.514 184.542C297.983 185.011 298.247 185.648 298.247 186.312V196.327C298.247 196.991 297.983 197.628 297.514 198.098C297.044 198.567 296.407 198.831 295.743 198.831H210.615C209.951 198.831 209.314 198.567 208.845 198.098C208.375 197.628 208.112 196.991 208.111 196.327V185.06C208.111 179.799 209.148 174.59 211.161 169.73C213.174 164.869 216.125 160.453 219.845 156.733C223.565 153.013 227.981 150.063 232.841 148.049C237.702 146.036 242.911 145 248.172 145V145Z" fill="#6C63FF"/>
</g>
<defs>
<clipPath id="clip0">
<rect width="1012.29" height="636.613" fill="white"/>
</clipPath>
</defs>
</svg>
