<svg width="1009" height="502" viewBox="0 0 1009 502" fill="none" xmlns="http://www.w3.org/2000/svg">
<g clip-path="url(#clip0)">
<path opacity="0.1" d="M526.33 501.78C792.398 501.78 1008.09 440.152 1008.09 364.13C1008.09 288.108 792.398 226.48 526.33 226.48C260.261 226.48 44.5696 288.108 44.5696 364.13C44.5696 440.152 260.261 501.78 526.33 501.78Z" fill="black"/>
<path d="M880.949 171.72C880.949 171.72 900.369 191.14 889.409 219.96C878.449 248.78 908.209 296.71 908.209 296.71L907.299 296.56C867.409 289.56 847.589 243.9 869.769 210.01C878.009 197.4 884.779 182.62 880.949 171.72Z" fill="#03045E"/>
<path d="M880.95 171.72C880.95 171.72 891.95 195.53 880.95 214.95C869.95 234.37 879.07 288.88 908.2 296.71" stroke="#535461" stroke-miterlimit="10"/>
<path d="M846.36 250.27C846.36 250.27 868.52 246.74 870.54 266.6C872.56 286.46 913.16 289.21 913.16 289.21L912.4 289.72C878.88 311.72 846.84 303.72 851.67 274.52C853.48 263.66 853.31 252.75 846.36 250.27Z" fill="#03045E"/>
<path opacity="0.2" d="M846.36 250.27C846.36 250.27 868.52 246.74 870.54 266.6C872.56 286.46 913.16 289.21 913.16 289.21L912.4 289.72C878.88 311.72 846.84 303.72 851.67 274.52C853.48 263.66 853.31 252.75 846.36 250.27Z" fill="#F5F5F5"/>
<path d="M846.36 250.27C846.36 250.27 863.56 254.05 862.15 269.69C860.74 285.33 887.7 304.08 913.15 289.22" stroke="#535461" stroke-miterlimit="10"/>
<path d="M804.229 376.43L756.359 372.89H127V280.7H804.229V376.43Z" fill="#F5F5F5"/>
<path d="M120.48 44.89H79.1396V20.55C79.1396 16.0413 80.9307 11.7173 84.1188 8.52917C87.307 5.34106 91.631 3.54999 96.1396 3.54999H103.48C107.988 3.54999 112.312 5.34106 115.5 8.52917C118.689 11.7173 120.48 16.0413 120.48 20.55V44.89Z" fill="#EDEDF4"/>
<path d="M829.64 236.38V377.03L783.48 376.43C783.48 375.43 783.55 374.43 783.55 373.49C783.55 349.355 773.962 326.209 756.896 309.143C739.831 292.077 716.684 282.49 692.55 282.49C668.415 282.49 645.269 292.077 628.203 309.143C611.137 326.209 601.55 349.355 601.55 373.49C601.55 373.69 601.55 373.89 601.55 374.08L555.48 373.48H316.7C316.697 370.139 316.51 366.801 316.14 363.48C315.97 361.88 315.76 360.31 315.49 358.75C314.847 354.739 313.931 350.777 312.75 346.89C312.27 345.29 311.75 343.72 311.17 342.16C309.678 338.099 307.9 334.149 305.85 330.34C304.99 328.73 304.07 327.16 303.11 325.61C300.529 321.442 297.616 317.489 294.4 313.79C292.98 312.157 291.51 310.58 289.99 309.06C272.928 292.026 249.804 282.458 225.695 282.458C201.585 282.458 178.461 292.026 161.4 309.06C159.873 310.587 158.403 312.163 156.99 313.79C153.773 317.489 150.861 321.442 148.28 325.61C147.28 327.16 146.4 328.73 145.54 330.34C143.489 334.149 141.712 338.099 140.22 342.16C139.65 343.72 139.12 345.29 138.64 346.89C137.46 350.763 136.544 354.713 135.9 358.71C135.63 360.27 135.42 361.84 135.25 363.44C134.88 366.761 134.693 370.099 134.69 373.44H43.6897V62.64H685.48L749.15 201.47L828.28 235.79L829.64 236.38Z" fill="#03045E"/>
<path d="M57.8597 33.09H660.46C667.09 33.09 673.449 35.7239 678.137 40.4123C682.826 45.1007 685.46 51.4596 685.46 58.09V62.64H43.6797V47.26C43.6797 45.3983 44.0465 43.5549 44.7593 41.835C45.472 40.1152 46.5167 38.5527 47.8335 37.2367C49.1504 35.9208 50.7137 34.8772 52.434 34.1657C54.1543 33.4542 55.998 33.0887 57.8597 33.09V33.09Z" fill="#F5F5F5"/>
<path d="M541.26 33.09H394.7V27.57C394.7 23.9481 395.413 20.3617 396.799 17.0156C398.185 13.6694 400.217 10.629 402.778 8.06798C405.339 5.50694 408.379 3.47541 411.725 2.08939C415.071 0.703361 418.658 -0.0100098 422.28 -0.0100098H506.98L541.26 33.09Z" fill="#EDEDF4"/>
<path opacity="0.1" d="M102.41 327.38H41.6797C35.6046 327.38 30.6797 332.305 30.6797 338.38V373.11C30.6797 379.185 35.6046 384.11 41.6797 384.11H102.41C108.485 384.11 113.41 379.185 113.41 373.11V338.38C113.41 332.305 108.485 327.38 102.41 327.38Z" fill="black"/>
<path opacity="0.1" d="M554.85 372.89H486.3V62.05H621.03V277.15L554.85 372.89Z" fill="black"/>
<path d="M101.23 329.75H40.4995C34.4244 329.75 29.4995 334.675 29.4995 340.75V375.48C29.4995 381.555 34.4244 386.48 40.4995 386.48H101.23C107.305 386.48 112.23 381.555 112.23 375.48V340.75C112.23 334.675 107.305 329.75 101.23 329.75Z" fill="#F5F5F5"/>
<path opacity="0.1" d="M835.9 325.02H818.65C811.011 325.02 804.82 331.212 804.82 338.85V377.38C804.82 385.018 811.011 391.21 818.65 391.21H835.9C843.538 391.21 849.73 385.018 849.73 377.38V338.85C849.73 331.212 843.538 325.02 835.9 325.02Z" fill="black"/>
<path d="M838.26 326.2H821.01C813.372 326.2 807.18 332.392 807.18 340.03V378.56C807.18 386.198 813.372 392.39 821.01 392.39H838.26C845.898 392.39 852.09 386.198 852.09 378.56V340.03C852.09 332.392 845.898 326.2 838.26 326.2Z" fill="#F5F5F5"/>
<path d="M589.08 85.1H521.8C512.963 85.1 505.8 92.2634 505.8 101.1V206.2C505.8 215.037 512.963 222.2 521.8 222.2H589.08C597.916 222.2 605.08 215.037 605.08 206.2V101.1C605.08 92.2634 597.916 85.1 589.08 85.1Z" fill="#F5F5F5"/>
<path d="M599.17 234.01H586.17V262.38H599.17V234.01Z" fill="#1A2246"/>
<path d="M645.26 104.59V202.49C645.26 203.954 645.841 205.358 646.877 206.393C647.912 207.428 649.316 208.01 650.78 208.01H711.03C712.011 208.009 712.975 207.747 713.821 207.25C714.668 206.753 715.366 206.04 715.845 205.183C716.324 204.326 716.566 203.357 716.546 202.376C716.525 201.394 716.244 200.436 715.73 199.6L655.48 101.7C654.85 100.677 653.903 99.8878 652.784 99.4516C651.665 99.0154 650.434 98.9563 649.278 99.2832C648.122 99.6101 647.104 100.305 646.379 101.263C645.654 102.221 645.261 103.389 645.26 104.59V104.59Z" fill="#F5F5F5"/>
<path d="M537.71 85.1L505.8 113.46V128.24L551.3 85.1H537.71Z" fill="white"/>
<path d="M505.8 145.36V162.51L581.44 85.1H566.66L505.8 145.36Z" fill="white"/>
<path d="M665.26 117.6L645.26 145.36V156.01L671.81 128.24L665.26 117.6Z" fill="white"/>
<path d="M680.91 145.36L645.26 175.81V184.38L688.9 156.01L680.91 145.36Z" fill="white"/>
<path d="M225.69 437.3C260.936 437.3 289.51 408.727 289.51 373.48C289.51 338.233 260.936 309.66 225.69 309.66C190.443 309.66 161.87 338.233 161.87 373.48C161.87 408.727 190.443 437.3 225.69 437.3Z" fill="#1A2246"/>
<path d="M225.689 408.94C245.274 408.94 261.15 393.064 261.15 373.48C261.15 353.896 245.274 338.02 225.689 338.02C206.105 338.02 190.229 353.896 190.229 373.48C190.229 393.064 206.105 408.94 225.689 408.94Z" fill="white"/>
<path d="M225.1 382.35C230.324 382.35 234.56 378.115 234.56 372.89C234.56 367.665 230.324 363.43 225.1 363.43C219.875 363.43 215.64 367.665 215.64 372.89C215.64 378.115 219.875 382.35 225.1 382.35Z" fill="#1A2246"/>
<path d="M692.54 437.3C727.787 437.3 756.36 408.727 756.36 373.48C756.36 338.233 727.787 309.66 692.54 309.66C657.293 309.66 628.72 338.233 628.72 373.48C628.72 408.727 657.293 437.3 692.54 437.3Z" fill="#1A2246"/>
<path d="M692.54 408.94C712.124 408.94 728 393.064 728 373.48C728 353.896 712.124 338.02 692.54 338.02C672.956 338.02 657.08 353.896 657.08 373.48C657.08 393.064 672.956 408.94 692.54 408.94Z" fill="white"/>
<path d="M693.13 382.35C698.354 382.35 702.59 378.115 702.59 372.89C702.59 367.665 698.354 363.43 693.13 363.43C687.905 363.43 683.67 367.665 683.67 372.89C683.67 378.115 687.905 382.35 693.13 382.35Z" fill="#1A2246"/>
<path opacity="0.1" d="M486.3 275.97H43.0896V280.7H486.3V275.97Z" fill="black"/>
<path opacity="0.1" d="M821.36 280.7H618.67L621.03 277.15V275.97H821.36" fill="black"/>
<path opacity="0.1" d="M821.36 260.61H621.03V255.88H821.36" fill="black"/>
<path opacity="0.1" d="M821.36 240.51H621.03V235.79H820" fill="black"/>
<path opacity="0.1" d="M184.08 292.52C181.296 293.956 178.589 295.534 175.97 297.25H43.0896V292.52H184.08Z" fill="black"/>
<path opacity="0.1" d="M486.3 292.52V297.25H275.42C272.8 295.534 270.093 293.956 267.31 292.52H486.3Z" fill="black"/>
<path opacity="0.1" d="M161.4 309.07C159.873 310.597 158.403 312.173 156.99 313.8H43.0896V309.07H161.4Z" fill="black"/>
<path opacity="0.1" d="M486.3 309.07V313.8H294.4C292.98 312.167 291.51 310.59 289.99 309.07H486.3Z" fill="black"/>
<path opacity="0.1" d="M148.28 325.61C147.28 327.16 146.4 328.73 145.54 330.34H43.0896V325.61H148.28Z" fill="black"/>
<path opacity="0.1" d="M486.3 325.61V330.34H305.85C304.99 328.73 304.07 327.16 303.11 325.61H486.3Z" fill="black"/>
<path opacity="0.1" d="M140.22 342.16C139.65 343.72 139.12 345.29 138.64 346.89H114V342.16H140.22Z" fill="black"/>
<path opacity="0.1" d="M486.3 342.16V346.89H312.75C312.27 345.29 311.75 343.72 311.17 342.16H486.3Z" fill="black"/>
<path opacity="0.1" d="M135.89 358.71C135.62 360.27 135.41 361.84 135.24 363.44H114V358.71H135.89Z" fill="black"/>
<path opacity="0.1" d="M486.3 358.71V363.44H316.14C315.97 361.84 315.76 360.27 315.49 358.71H486.3Z" fill="black"/>
<path d="M931.07 292.99C931.07 292.99 917.13 290.2 913.42 286.49C909.71 282.78 892.98 276.27 891.12 280.92C889.26 285.57 866.03 301.36 881.83 304.15C897.63 306.94 919 307.87 923.64 306.01C928.28 304.15 931.07 292.99 931.07 292.99Z" fill="#A8A8A8"/>
<path opacity="0.2" d="M881.82 302.42C897.62 305.21 918.99 306.14 923.63 304.28C927.17 302.86 929.63 296.07 930.63 292.9L931.09 293C931.09 293 928.3 304.15 923.66 306C919.02 307.85 897.66 306.93 881.85 304.14C877.29 303.34 875.99 301.45 876.48 299.05C876.84 300.62 878.43 301.82 881.82 302.42Z" fill="black"/>
<path d="M969.73 371.97C969.73 371.97 982.94 327.1 967.25 294.08C960.579 280.27 958.569 264.67 961.52 249.62C962.974 242.486 965.08 235.5 967.81 228.75" stroke="#535461" stroke-width="2" stroke-miterlimit="10"/>
<path d="M958.05 207.89C958.05 213.39 968.05 229.33 968.05 229.33C968.05 229.33 978.05 213.38 978.05 207.89C977.814 205.413 976.663 203.113 974.822 201.439C972.981 199.765 970.583 198.838 968.095 198.838C965.606 198.838 963.208 199.765 961.367 201.439C959.526 203.113 958.375 205.413 958.14 207.89H958.05Z" fill="#03045E"/>
<path d="M941.59 238.34C944.59 242.96 961.59 250.93 961.59 250.93C961.59 250.93 961.28 232.13 958.29 227.52C957.645 226.288 956.75 225.204 955.662 224.338C954.574 223.471 953.318 222.841 951.973 222.488C950.628 222.134 949.224 222.065 947.851 222.285C946.478 222.505 945.166 223.009 943.998 223.764C942.831 224.52 941.834 225.51 941.071 226.673C940.308 227.835 939.796 229.144 939.567 230.516C939.339 231.888 939.399 233.292 939.743 234.639C940.088 235.986 940.71 237.247 941.57 238.34H941.59Z" fill="#03045E"/>
<path d="M942.31 290.39C947.22 292.87 965.94 291.16 965.94 291.16C965.94 291.16 956.18 275.09 951.27 272.61C950.092 271.882 948.775 271.407 947.404 271.215C946.033 271.022 944.637 271.116 943.304 271.491C941.971 271.867 940.731 272.515 939.661 273.394C938.592 274.274 937.717 275.366 937.092 276.601C936.466 277.837 936.104 279.188 936.029 280.571C935.953 281.953 936.165 283.337 936.652 284.633C937.139 285.929 937.889 287.11 938.856 288.101C939.824 289.092 940.986 289.872 942.27 290.39H942.31Z" fill="#03045E"/>
<path d="M951.72 329.65C956.14 332.92 974.88 334.4 974.88 334.4C974.88 334.4 967.98 316.91 963.56 313.64C961.429 312.365 958.9 311.928 956.465 312.415C954.03 312.901 951.863 314.276 950.386 316.272C948.909 318.268 948.227 320.743 948.474 323.213C948.72 325.684 949.877 327.975 951.72 329.64V329.65Z" fill="#03045E"/>
<path d="M982.48 252C978.54 255.83 960.16 259.8 960.16 259.8C960.16 259.8 964.66 241.55 968.6 237.72C969.503 236.662 970.618 235.804 971.872 235.202C973.126 234.599 974.491 234.265 975.882 234.22C977.272 234.175 978.657 234.421 979.947 234.942C981.237 235.463 982.404 236.247 983.374 237.245C984.344 238.243 985.095 239.432 985.579 240.736C986.063 242.04 986.269 243.431 986.185 244.82C986.101 246.209 985.728 247.565 985.09 248.801C984.452 250.037 983.563 251.127 982.48 252Z" fill="#03045E"/>
<path d="M992.93 298.05C988.02 300.53 969.3 298.82 969.3 298.82C969.3 298.82 979.06 282.75 983.97 280.27C986.293 279.332 988.884 279.3 991.229 280.181C993.575 281.062 995.504 282.791 996.636 285.026C997.767 287.262 998.019 289.841 997.34 292.252C996.661 294.664 995.101 296.733 992.97 298.05H992.93Z" fill="#03045E"/>
<path d="M996.92 344.2C992.5 347.47 973.76 348.95 973.76 348.95C973.76 348.95 980.66 331.46 985.08 328.19C987.21 326.915 989.739 326.478 992.174 326.965C994.609 327.451 996.776 328.826 998.253 330.822C999.73 332.818 1000.41 335.293 1000.17 337.763C999.919 340.234 998.762 342.525 996.92 344.19V344.2Z" fill="#03045E"/>
<path d="M998.48 367.61C998.48 367.61 974.33 362.78 967.89 356.34C961.45 349.9 932.47 338.63 929.25 346.68C926.03 354.73 885.78 382.1 913.15 386.93C940.52 391.76 977.55 393.37 985.59 390.15C993.63 386.93 998.48 367.61 998.48 367.61Z" fill="#A8A8A8"/>
<path opacity="0.2" d="M913.15 383.89C940.52 388.72 977.55 390.33 985.59 387.11C991.72 384.66 995.98 372.88 997.66 367.39L998.47 367.56C998.47 367.56 993.64 386.88 985.59 390.1C977.54 393.32 940.51 391.71 913.15 386.88C905.25 385.49 902.99 382.21 903.84 378.07C904.48 380.82 907.27 382.89 913.15 383.89Z" fill="black"/>
<path d="M375.441 239.219H334.291V226.726C347.294 217.677 358.815 218.464 373.972 227.461L375.441 239.219Z" fill="#6C63FF"/>
<path d="M324.761 461.108L315.752 461.107L314.405 426.358L324.763 426.359L324.761 461.108Z" fill="#FFB8B8"/>
<path d="M327.059 469.841L298.01 469.84V469.472C298.01 467.987 298.303 466.517 298.871 465.145C299.439 463.774 300.272 462.527 301.322 461.477C302.372 460.427 303.618 459.594 304.99 459.026C306.362 458.458 307.832 458.166 309.317 458.166H309.318L327.059 458.166L327.059 469.841Z" fill="#2F2E41"/>
<path d="M375.504 461.108L384.513 461.107L385.86 426.358L375.503 426.359L375.504 461.108Z" fill="#FFB8B8"/>
<path d="M373.207 458.166L390.949 458.166H390.949C392.434 458.166 393.904 458.458 395.276 459.026C396.648 459.594 397.894 460.427 398.944 461.477C399.994 462.527 400.827 463.773 401.395 465.145C401.963 466.517 402.256 467.987 402.256 469.472V469.84L373.207 469.841L373.207 458.166Z" fill="#2F2E41"/>
<path d="M375.741 456.654C374.99 456.652 374.261 456.394 373.674 455.924C373.088 455.454 372.678 454.799 372.512 454.066L350.183 356.671C350.134 356.424 349.999 356.201 349.803 356.044C349.606 355.886 349.36 355.802 349.107 355.808H349.102C348.849 355.804 348.602 355.889 348.405 356.049C348.209 356.209 348.076 356.433 348.029 356.682L327.523 453.42C327.363 454.16 326.956 454.823 326.367 455.3C325.779 455.776 325.046 456.038 324.288 456.041H314.52C314.07 456.041 313.624 455.948 313.21 455.77C312.796 455.591 312.423 455.33 312.114 455.002C311.805 454.674 311.566 454.286 311.412 453.863C311.258 453.439 311.193 452.989 311.219 452.539L318.495 329.927L321.423 329.061L321.478 329.062L378.985 329.565L391.232 452.041C391.275 452.478 391.231 452.919 391.101 453.339C390.972 453.758 390.76 454.147 390.478 454.484C390.197 454.821 389.851 455.098 389.461 455.3C389.071 455.501 388.645 455.623 388.207 455.658L376.006 456.643C375.917 456.651 375.829 456.654 375.741 456.654Z" fill="#2F2E41"/>
<path d="M351.993 216.829C361.961 216.829 370.042 208.749 370.042 198.781C370.042 188.813 361.961 180.733 351.993 180.733C342.025 180.733 333.945 188.813 333.945 198.781C333.945 208.749 342.025 216.829 351.993 216.829Z" fill="#FFB8B8"/>
<path d="M340.937 343.37C337.77 343.409 334.617 342.965 331.584 342.054C328.887 341.241 326.385 339.884 324.231 338.067C322.078 336.251 320.32 334.012 319.064 331.491C318.666 330.732 318.578 329.848 318.818 329.026C320.808 322.232 330.427 286.919 324.29 258.847C323.424 254.947 323.352 250.912 324.078 246.984C324.805 243.056 326.315 239.314 328.519 235.983C330.671 232.677 333.468 229.838 336.741 227.637C340.014 225.435 343.698 223.915 347.571 223.168L347.571 223.167C348.589 222.969 349.613 222.806 350.613 222.682C354.894 222.155 359.24 222.581 363.338 223.929C367.436 225.278 371.185 227.515 374.317 230.481C377.542 233.506 380.059 237.206 381.687 241.317C383.315 245.428 384.014 249.848 383.734 254.261L379.018 329.952C378.985 330.52 378.806 331.069 378.497 331.546C378.188 332.023 377.76 332.411 377.255 332.673C371.823 335.52 355.505 343.37 340.937 343.37Z" fill="#3F3D56"/>
<path d="M372.382 185.496C370.508 180.784 367.073 176.858 362.653 174.373C358.233 171.887 353.094 170.993 348.094 171.84L353.785 176.438C346.714 176.676 339.272 176.17 334.224 181.126C335.831 181.082 337.937 184.519 339.544 184.474C336.54 184.534 333.815 186.645 332.488 189.341C331.259 192.112 330.971 195.208 331.669 198.157C332.263 201.104 336.79 208.005 338.008 210.753C337.799 203.573 351.933 186.448 358.835 188.235C355.328 189.537 352.285 191.847 350.09 194.875C354.785 192.505 360.096 191.636 365.302 192.386C366.49 192.659 367.717 192.727 368.928 192.589C369.671 192.442 370.363 192.107 370.94 191.616C371.516 191.126 371.957 190.495 372.22 189.786C372.483 189.076 372.56 188.311 372.443 187.563C372.327 186.815 372.02 186.109 371.553 185.514L372.382 185.496Z" fill="#2F2E41"/>
<path d="M339.693 338.825C339.238 338.824 338.787 338.729 338.369 338.546L304.125 323.599C303.398 323.287 302.808 322.723 302.463 322.01C302.118 321.298 302.042 320.485 302.249 319.721L324.919 234.084C325.34 232.49 326.075 230.997 327.081 229.691C328.087 228.385 329.343 227.293 330.776 226.478C332.209 225.664 333.79 225.143 335.426 224.947C337.063 224.751 338.722 224.884 340.307 225.337L349.371 227.924L342.99 335.71C342.957 336.242 342.797 336.758 342.522 337.215C342.248 337.671 341.867 338.055 341.413 338.333C340.897 338.653 340.301 338.824 339.693 338.825V338.825Z" fill="#6C63FF"/>
<path d="M403.071 319.72L401.565 314.04L399.382 305.78L398.331 301.82L396.149 293.582L380.401 234.082C379.981 232.488 379.247 230.994 378.242 229.687C377.236 228.381 375.98 227.288 374.547 226.474C373.114 225.659 371.532 225.139 369.895 224.944C368.258 224.749 366.599 224.883 365.014 225.338L355.953 227.924L360.443 303.737L360.906 311.652L361.2 316.641V316.649L361.67 324.519L362.332 335.71C362.386 336.551 362.756 337.339 363.368 337.917C363.981 338.495 364.789 338.82 365.631 338.826C366.086 338.823 366.536 338.728 366.954 338.547L401.197 323.6C401.925 323.288 402.516 322.724 402.86 322.011C403.205 321.298 403.28 320.484 403.071 319.72V319.72Z" fill="#6C63FF"/>
<path d="M398.331 301.819L360.907 311.652L360.443 303.737L396.15 293.582L398.331 301.819Z" fill="#CCCCCC"/>
<path d="M401.565 314.04L361.67 324.519L361.201 316.649V316.641L399.383 305.78L401.565 314.04Z" fill="#CCCCCC"/>
<path d="M344.417 305.442L343.953 313.209L307.249 302.275L309.401 294.148L344.417 305.442Z" fill="#CCCCCC"/>
<path d="M343.652 318.324L306.197 306.236L304.044 314.385L343.196 326.047L343.652 318.324Z" fill="#CCCCCC"/>
<path d="M306.851 326.447C307.967 326.155 309.006 325.623 309.895 324.886C310.783 324.15 311.5 323.227 311.993 322.184C312.487 321.141 312.745 320.002 312.751 318.848C312.757 317.694 312.509 316.553 312.026 315.505L329.635 260.226L317.149 257.611L301.005 311.808C299.298 312.736 297.991 314.258 297.331 316.085C296.671 317.913 296.705 319.919 297.426 321.724C298.146 323.528 299.503 325.006 301.241 325.876C302.978 326.747 304.974 326.95 306.851 326.447V326.447Z" fill="#FFB8B8"/>
<path d="M330.123 233.05C333.709 233.416 335.725 237.447 334.834 242.467L330.556 266.553C330.236 268.359 328.75 269.789 327.514 269.48L313.045 265.863C311.932 265.585 311.522 264.003 312.153 262.42L320.839 240.63C322.725 235.897 326.647 232.696 330.123 233.05Z" fill="#3F3D56"/>
<path d="M351.926 165C358.035 165.001 363.903 167.379 368.289 171.631C372.674 175.883 375.233 181.675 375.423 187.78H379.85C380.24 187.78 380.614 187.935 380.89 188.21C381.165 188.486 381.32 188.86 381.32 189.25V195.128C381.32 195.518 381.165 195.892 380.89 196.168C380.614 196.443 380.24 196.598 379.85 196.598H329.881C329.492 196.598 329.118 196.443 328.842 196.168C328.566 195.892 328.412 195.518 328.412 195.128V188.515C328.412 185.427 329.02 182.369 330.202 179.516C331.383 176.663 333.115 174.071 335.299 171.887C337.482 169.704 340.075 167.972 342.928 166.79C345.781 165.608 348.838 165 351.926 165Z" fill="#6C63FF"/>
<path d="M354.736 310.355H344.349C344.016 310.356 343.694 310.232 343.447 310.008C343.2 309.784 343.046 309.476 343.015 309.144L340.936 287.833H358.15L356.071 309.144C356.04 309.476 355.885 309.784 355.638 310.008C355.392 310.232 355.07 310.356 354.736 310.355V310.355Z" fill="#E6E6E6"/>
<path d="M358.122 290.514H340.963C340.607 290.513 340.267 290.372 340.015 290.121C339.764 289.869 339.623 289.529 339.622 289.173V285.956C339.623 285.601 339.764 285.26 340.015 285.008C340.267 284.757 340.607 284.616 340.963 284.615H358.122C358.478 284.616 358.819 284.757 359.07 285.008C359.321 285.26 359.463 285.601 359.463 285.956V289.173C359.463 289.529 359.321 289.869 359.07 290.121C358.819 290.372 358.478 290.513 358.122 290.514V290.514Z" fill="#CCCCCC"/>
<path d="M349.766 298.925C350.17 298.972 350.569 299.05 350.961 299.16L378.625 275.436L377.007 266.732L389.825 262.574L394.185 277.706C394.537 278.928 394.484 280.232 394.032 281.421C393.58 282.61 392.755 283.621 391.68 284.301L356.645 306.471C356.669 308.038 356.217 309.574 355.347 310.877C354.477 312.18 353.231 313.187 351.775 313.764C350.319 314.342 348.722 314.462 347.196 314.11C345.669 313.757 344.287 312.948 343.231 311.79C342.176 310.633 341.498 309.181 341.288 307.629C341.078 306.077 341.345 304.497 342.054 303.101C342.764 301.704 343.882 300.557 345.259 299.811C346.636 299.065 348.208 298.756 349.766 298.925V298.925Z" fill="#FFB8B8"/>
<path d="M378.696 235.04C382.526 233.968 386.353 236.883 387.635 241.849L393.788 265.68C394.249 267.466 393.354 269.364 391.954 269.566L375.563 271.924C374.301 272.105 373.19 270.811 373.144 269.108L372.507 245.657C372.369 240.564 374.983 236.079 378.696 235.04Z" fill="#3F3D56"/>
</g>
<defs>
<clipPath id="clip0">
<rect width="1007.23" height="501.78" fill="white" transform="translate(0.859619)"/>
</clipPath>
</defs>
</svg>
