<svg xmlns="http://www.w3.org/2000/svg" viewBox="0 0 31.5 48.32"><defs><style>.cls-1{fill:#999;}</style></defs><g id="Layer_2" data-name="Layer 2"><g id="Layer_2-2" data-name="Layer 2"><path class="cls-1" d="M6.58,48.32a4,4,0,0,1-1.13-.17,3.73,3.73,0,0,1-2.17-1.84A3.67,3.67,0,0,1,3,43.48l1.85-5.83a3.73,3.73,0,0,1,3.43-2.59l.56,0,1.4-4.4-.67-.28A15.81,15.81,0,0,1,15.81,0,15.65,15.65,0,0,1,29.74,8.55a15.8,15.8,0,0,1-14,23.05,16.15,16.15,0,0,1-3.39-.37l-.7-.16-1.4,4.4.44.34A3.71,3.71,0,0,1,12,39.9l-1.85,5.83A3.72,3.72,0,0,1,6.58,48.32ZM8.44,36.48a2.28,2.28,0,0,0-2.19,1.6L4.39,43.91A2.3,2.3,0,0,0,8.77,45.3l1.86-5.83a2.3,2.3,0,0,0-1.49-2.88A2.13,2.13,0,0,0,8.44,36.48ZM15.8,1.42A14.38,14.38,0,0,0,2.08,11.5a14.33,14.33,0,1,0,26.4-2.3,14.18,14.18,0,0,0-8.36-7.11A14.48,14.48,0,0,0,15.8,1.42Z"/><path class="cls-1" d="M19.08,18.18a2.69,2.69,0,0,0-.37-.71,6.12,6.12,0,0,0-.44-.56,5.53,5.53,0,0,0-.58-.52c-.24-.19-.43-.34-.58-.44l-.61-.41L16,15.19l-.44-.33a3.84,3.84,0,0,1-.37-.31l-.24-.32a.9.9,0,0,1-.12-.27.76.76,0,0,1,0-.3.82.82,0,0,1,.52-.6A2,2,0,0,1,16.52,13a2.6,2.6,0,0,1,.62.23,3.11,3.11,0,0,1,.52.32,4.32,4.32,0,0,1,.39.34l.26.27c.06.07.07.09.07.1h0v0a.57.57,0,0,0,.33.2h.09a.51.51,0,0,0,.47-.19l.93-1.05a.54.54,0,0,0,.06-.69l-.11-.15a2.22,2.22,0,0,0-.29-.34,5.22,5.22,0,0,0-.48-.46,6.56,6.56,0,0,0-.7-.46,5.16,5.16,0,0,0-.67-.32l.27-1.2a.59.59,0,0,0-.07-.43A.57.57,0,0,0,17.86,9l-1.11-.25a.59.59,0,0,0-.43.08.55.55,0,0,0-.25.36l-.28,1.24a4.2,4.2,0,0,0-2.28.69,3.22,3.22,0,0,0-1.37,2,3.14,3.14,0,0,0-.08.73,4.16,4.16,0,0,0,0,.64,2.31,2.31,0,0,0,.22.62,3.9,3.9,0,0,0,.28.51,3.23,3.23,0,0,0,.4.5c.16.17.3.3.42.41s.28.24.48.39l.47.34.46.32c.27.18.47.31.59.41s.28.21.47.37a1.6,1.6,0,0,1,.36.36,1,1,0,0,1,.16.33.51.51,0,0,1,0,.3.86.86,0,0,1-.55.68,1.72,1.72,0,0,1-1.08.08,2.55,2.55,0,0,1-.53-.18,4.12,4.12,0,0,1-1.65-1.37h0a.53.53,0,0,0-.34-.25h-.08a.55.55,0,0,0-.43.13l-1.1.92a.56.56,0,0,0-.13.71l.13.21c.06.09.17.22.33.42a7.23,7.23,0,0,0,.55.56,8,8,0,0,0,.8.59,6.21,6.21,0,0,0,.81.42l-.27,1.19a.58.58,0,0,0,.44.68l1.11.25a.59.59,0,0,0,.43-.07.57.57,0,0,0,.25-.37l.27-1.2A3.79,3.79,0,0,0,17.71,22a3.53,3.53,0,0,0,1.43-2.17,3.41,3.41,0,0,0,.07-.89A3.89,3.89,0,0,0,19.08,18.18Z"/></g></g></svg>