<svg xmlns="http://www.w3.org/2000/svg" viewBox="0 0 44.09 44.1"><defs><style>.cls-1{fill:#999;}</style></defs><g id="Layer_2" data-name="Layer 2"><g id="Layer_2-2" data-name="Layer 2"><path class="cls-1" d="M27.71,44.1a.82.82,0,0,1-.82-.82V32.66A2.71,2.71,0,0,0,24.17,30H19.92a2.71,2.71,0,0,0-2.71,2.71V43.28a.82.82,0,0,1-.82.82H9.19a4.36,4.36,0,0,1-4.36-4.36v-14H3.49a3.6,3.6,0,0,1-2.42-1.07,3.66,3.66,0,0,1,0-5.16l18.4-18.4a3.66,3.66,0,0,1,5.17,0L43,19.47a3.65,3.65,0,0,1-2.58,6.23H39.26v14A4.36,4.36,0,0,1,34.9,44.1ZM24.17,28.3a4.37,4.37,0,0,1,4.36,4.36v9.8H34.9a2.72,2.72,0,0,0,2.72-2.72V24.88a.82.82,0,0,1,.82-.82h2a2,2,0,0,0,1.43-3.43L23.47,2.23a2,2,0,0,0-2.84,0L2.08,20.77v0a2,2,0,0,0-.44,1.26,2,2,0,0,0,2,2h2a.82.82,0,0,1,.82.82V39.74a2.72,2.72,0,0,0,2.72,2.72h6.37v-9.8a4.37,4.37,0,0,1,4.36-4.36Z"/></g></g></svg>